<?xml version="1.0" encoding="UTF-8" standalone="no"?>
<!DOCTYPE svg PUBLIC "-//W3C//DTD SVG 1.1//EN"
 "http://www.w3.org/Graphics/SVG/1.1/DTD/svg11.dtd">
<!-- Generated by graphviz version 2.40.1 (20161225.0304)
 -->
<!-- Title: Tree Pages: 1 -->
<svg width="1086pt" height="997pt"
 viewBox="0.00 0.00 1086.00 997.00" xmlns="http://www.w3.org/2000/svg" xmlns:xlink="http://www.w3.org/1999/xlink">
<g id="graph0" class="graph" transform="scale(1 1) rotate(0) translate(4 993)">
<title>Tree</title>
<polygon fill="#ffffff" stroke="transparent" points="-4,4 -4,-993 1082,-993 1082,4 -4,4"/>
<!-- 0 -->
<g id="node1" class="node">
<title>0</title>
<polygon fill="none" stroke="#000000" points="656.5,-989 540.5,-989 540.5,-921 656.5,-921 656.5,-989"/>
<text text-anchor="middle" x="598.5" y="-973.8" font-family="Helvetica,sans-Serif" font-size="14.00" fill="#000000">X[0] &lt;= 91.5</text>
<text text-anchor="middle" x="598.5" y="-958.8" font-family="Helvetica,sans-Serif" font-size="14.00" fill="#000000">gini = 0.491</text>
<text text-anchor="middle" x="598.5" y="-943.8" font-family="Helvetica,sans-Serif" font-size="14.00" fill="#000000">samples = 81</text>
<text text-anchor="middle" x="598.5" y="-928.8" font-family="Helvetica,sans-Serif" font-size="14.00" fill="#000000">value = [35, 46]</text>
</g>
<!-- 1 -->
<g id="node2" class="node">
<title>1</title>
<polygon fill="none" stroke="#000000" points="587,-885 480,-885 480,-817 587,-817 587,-885"/>
<text text-anchor="middle" x="533.5" y="-869.8" font-family="Helvetica,sans-Serif" font-size="14.00" fill="#000000">X[5] &lt;= &#45;5.909</text>
<text text-anchor="middle" x="533.5" y="-854.8" font-family="Helvetica,sans-Serif" font-size="14.00" fill="#000000">gini = 0.383</text>
<text text-anchor="middle" x="533.5" y="-839.8" font-family="Helvetica,sans-Serif" font-size="14.00" fill="#000000">samples = 31</text>
<text text-anchor="middle" x="533.5" y="-824.8" font-family="Helvetica,sans-Serif" font-size="14.00" fill="#000000">value = [23, 8]</text>
</g>
<!-- 0&#45;&gt;1 -->
<g id="edge1" class="edge">
<title>0&#45;&gt;1</title>
<path fill="none" stroke="#000000" d="M577.2166,-920.9465C571.7733,-912.2373 565.8516,-902.7626 560.175,-893.6801"/>
<polygon fill="#000000" stroke="#000000" points="563.0993,-891.755 554.8312,-885.13 557.1633,-895.465 563.0993,-891.755"/>
<text text-anchor="middle" x="549.2098" y="-905.7898" font-family="Helvetica,sans-Serif" font-size="14.00" fill="#000000">True</text>
</g>
<!-- 18 -->
<g id="node19" class="node">
<title>18</title>
<polygon fill="none" stroke="#000000" points="721.5,-885 605.5,-885 605.5,-817 721.5,-817 721.5,-885"/>
<text text-anchor="middle" x="663.5" y="-869.8" font-family="Helvetica,sans-Serif" font-size="14.00" fill="#000000">X[4] &lt;= &#45;61.865</text>
<text text-anchor="middle" x="663.5" y="-854.8" font-family="Helvetica,sans-Serif" font-size="14.00" fill="#000000">gini = 0.365</text>
<text text-anchor="middle" x="663.5" y="-839.8" font-family="Helvetica,sans-Serif" font-size="14.00" fill="#000000">samples = 50</text>
<text text-anchor="middle" x="663.5" y="-824.8" font-family="Helvetica,sans-Serif" font-size="14.00" fill="#000000">value = [12, 38]</text>
</g>
<!-- 0&#45;&gt;18 -->
<g id="edge18" class="edge">
<title>0&#45;&gt;18</title>
<path fill="none" stroke="#000000" d="M619.7834,-920.9465C625.2267,-912.2373 631.1484,-902.7626 636.825,-893.6801"/>
<polygon fill="#000000" stroke="#000000" points="639.8367,-895.465 642.1688,-885.13 633.9007,-891.755 639.8367,-895.465"/>
<text text-anchor="middle" x="647.7902" y="-905.7898" font-family="Helvetica,sans-Serif" font-size="14.00" fill="#000000">False</text>
</g>
<!-- 2 -->
<g id="node3" class="node">
<title>2</title>
<polygon fill="none" stroke="#000000" points="469,-781 358,-781 358,-713 469,-713 469,-781"/>
<text text-anchor="middle" x="413.5" y="-765.8" font-family="Helvetica,sans-Serif" font-size="14.00" fill="#000000">X[3] &lt;= 30.027</text>
<text text-anchor="middle" x="413.5" y="-750.8" font-family="Helvetica,sans-Serif" font-size="14.00" fill="#000000">gini = 0.328</text>
<text text-anchor="middle" x="413.5" y="-735.8" font-family="Helvetica,sans-Serif" font-size="14.00" fill="#000000">samples = 29</text>
<text text-anchor="middle" x="413.5" y="-720.8" font-family="Helvetica,sans-Serif" font-size="14.00" fill="#000000">value = [23, 6]</text>
</g>
<!-- 1&#45;&gt;2 -->
<g id="edge2" class="edge">
<title>1&#45;&gt;2</title>
<path fill="none" stroke="#000000" d="M494.2075,-816.9465C483.4333,-807.6088 471.6436,-797.3911 460.485,-787.7203"/>
<polygon fill="#000000" stroke="#000000" points="462.7299,-785.0344 452.8808,-781.13 458.1454,-790.3243 462.7299,-785.0344"/>
</g>
<!-- 17 -->
<g id="node18" class="node">
<title>17</title>
<polygon fill="none" stroke="#000000" points="586,-773.5 487,-773.5 487,-720.5 586,-720.5 586,-773.5"/>
<text text-anchor="middle" x="536.5" y="-758.3" font-family="Helvetica,sans-Serif" font-size="14.00" fill="#000000">gini = 0.0</text>
<text text-anchor="middle" x="536.5" y="-743.3" font-family="Helvetica,sans-Serif" font-size="14.00" fill="#000000">samples = 2</text>
<text text-anchor="middle" x="536.5" y="-728.3" font-family="Helvetica,sans-Serif" font-size="14.00" fill="#000000">value = [0, 2]</text>
</g>
<!-- 1&#45;&gt;17 -->
<g id="edge17" class="edge">
<title>1&#45;&gt;17</title>
<path fill="none" stroke="#000000" d="M534.4823,-816.9465C534.7905,-806.2621 535.132,-794.4254 535.445,-783.5742"/>
<polygon fill="#000000" stroke="#000000" points="538.9445,-783.639 535.7344,-773.5422 531.9474,-783.4371 538.9445,-783.639"/>
</g>
<!-- 3 -->
<g id="node4" class="node">
<title>3</title>
<polygon fill="none" stroke="#000000" points="343,-677 232,-677 232,-609 343,-609 343,-677"/>
<text text-anchor="middle" x="287.5" y="-661.8" font-family="Helvetica,sans-Serif" font-size="14.00" fill="#000000">X[3] &lt;= 23.779</text>
<text text-anchor="middle" x="287.5" y="-646.8" font-family="Helvetica,sans-Serif" font-size="14.00" fill="#000000">gini = 0.444</text>
<text text-anchor="middle" x="287.5" y="-631.8" font-family="Helvetica,sans-Serif" font-size="14.00" fill="#000000">samples = 18</text>
<text text-anchor="middle" x="287.5" y="-616.8" font-family="Helvetica,sans-Serif" font-size="14.00" fill="#000000">value = [12, 6]</text>
</g>
<!-- 2&#45;&gt;3 -->
<g id="edge3" class="edge">
<title>2&#45;&gt;3</title>
<path fill="none" stroke="#000000" d="M372.2429,-712.9465C360.9299,-703.6088 348.5508,-693.3911 336.8342,-683.7203"/>
<polygon fill="#000000" stroke="#000000" points="338.79,-680.7964 328.8498,-677.13 334.3341,-686.195 338.79,-680.7964"/>
</g>
<!-- 16 -->
<g id="node17" class="node">
<title>16</title>
<polygon fill="none" stroke="#000000" points="468,-669.5 361,-669.5 361,-616.5 468,-616.5 468,-669.5"/>
<text text-anchor="middle" x="414.5" y="-654.3" font-family="Helvetica,sans-Serif" font-size="14.00" fill="#000000">gini = 0.0</text>
<text text-anchor="middle" x="414.5" y="-639.3" font-family="Helvetica,sans-Serif" font-size="14.00" fill="#000000">samples = 11</text>
<text text-anchor="middle" x="414.5" y="-624.3" font-family="Helvetica,sans-Serif" font-size="14.00" fill="#000000">value = [11, 0]</text>
</g>
<!-- 2&#45;&gt;16 -->
<g id="edge16" class="edge">
<title>2&#45;&gt;16</title>
<path fill="none" stroke="#000000" d="M413.8274,-712.9465C413.9302,-702.2621 414.044,-690.4254 414.1483,-679.5742"/>
<polygon fill="#000000" stroke="#000000" points="417.6484,-679.5754 414.2448,-669.5422 410.6487,-679.508 417.6484,-679.5754"/>
</g>
<!-- 4 -->
<g id="node5" class="node">
<title>4</title>
<polygon fill="none" stroke="#000000" points="211,-565.5 112,-565.5 112,-512.5 211,-512.5 211,-565.5"/>
<text text-anchor="middle" x="161.5" y="-550.3" font-family="Helvetica,sans-Serif" font-size="14.00" fill="#000000">gini = 0.0</text>
<text text-anchor="middle" x="161.5" y="-535.3" font-family="Helvetica,sans-Serif" font-size="14.00" fill="#000000">samples = 7</text>
<text text-anchor="middle" x="161.5" y="-520.3" font-family="Helvetica,sans-Serif" font-size="14.00" fill="#000000">value = [7, 0]</text>
</g>
<!-- 3&#45;&gt;4 -->
<g id="edge4" class="edge">
<title>3&#45;&gt;4</title>
<path fill="none" stroke="#000000" d="M246.2429,-608.9465C231.8303,-597.0504 215.6873,-583.726 201.3883,-571.9237"/>
<polygon fill="#000000" stroke="#000000" points="203.5971,-569.2086 193.6569,-565.5422 199.1411,-574.6071 203.5971,-569.2086"/>
</g>
<!-- 5 -->
<g id="node6" class="node">
<title>5</title>
<polygon fill="none" stroke="#000000" points="345.5,-573 229.5,-573 229.5,-505 345.5,-505 345.5,-573"/>
<text text-anchor="middle" x="287.5" y="-557.8" font-family="Helvetica,sans-Serif" font-size="14.00" fill="#000000">X[4] &lt;= &#45;61.116</text>
<text text-anchor="middle" x="287.5" y="-542.8" font-family="Helvetica,sans-Serif" font-size="14.00" fill="#000000">gini = 0.496</text>
<text text-anchor="middle" x="287.5" y="-527.8" font-family="Helvetica,sans-Serif" font-size="14.00" fill="#000000">samples = 11</text>
<text text-anchor="middle" x="287.5" y="-512.8" font-family="Helvetica,sans-Serif" font-size="14.00" fill="#000000">value = [5, 6]</text>
</g>
<!-- 3&#45;&gt;5 -->
<g id="edge5" class="edge">
<title>3&#45;&gt;5</title>
<path fill="none" stroke="#000000" d="M287.5,-608.9465C287.5,-600.776 287.5,-591.9318 287.5,-583.3697"/>
<polygon fill="#000000" stroke="#000000" points="291.0001,-583.13 287.5,-573.13 284.0001,-583.13 291.0001,-583.13"/>
</g>
<!-- 6 -->
<g id="node7" class="node">
<title>6</title>
<polygon fill="none" stroke="#000000" points="212,-461.5 113,-461.5 113,-408.5 212,-408.5 212,-461.5"/>
<text text-anchor="middle" x="162.5" y="-446.3" font-family="Helvetica,sans-Serif" font-size="14.00" fill="#000000">gini = 0.0</text>
<text text-anchor="middle" x="162.5" y="-431.3" font-family="Helvetica,sans-Serif" font-size="14.00" fill="#000000">samples = 2</text>
<text text-anchor="middle" x="162.5" y="-416.3" font-family="Helvetica,sans-Serif" font-size="14.00" fill="#000000">value = [2, 0]</text>
</g>
<!-- 5&#45;&gt;6 -->
<g id="edge6" class="edge">
<title>5&#45;&gt;6</title>
<path fill="none" stroke="#000000" d="M246.5703,-504.9465C232.4045,-493.1606 216.5537,-479.9726 202.4662,-468.2519"/>
<polygon fill="#000000" stroke="#000000" points="204.3275,-465.2474 194.4016,-461.5422 199.8504,-470.6285 204.3275,-465.2474"/>
</g>
<!-- 7 -->
<g id="node8" class="node">
<title>7</title>
<polygon fill="none" stroke="#000000" points="346.5,-469 230.5,-469 230.5,-401 346.5,-401 346.5,-469"/>
<text text-anchor="middle" x="288.5" y="-453.8" font-family="Helvetica,sans-Serif" font-size="14.00" fill="#000000">X[4] &lt;= &#45;35.971</text>
<text text-anchor="middle" x="288.5" y="-438.8" font-family="Helvetica,sans-Serif" font-size="14.00" fill="#000000">gini = 0.444</text>
<text text-anchor="middle" x="288.5" y="-423.8" font-family="Helvetica,sans-Serif" font-size="14.00" fill="#000000">samples = 9</text>
<text text-anchor="middle" x="288.5" y="-408.8" font-family="Helvetica,sans-Serif" font-size="14.00" fill="#000000">value = [3, 6]</text>
</g>
<!-- 5&#45;&gt;7 -->
<g id="edge7" class="edge">
<title>5&#45;&gt;7</title>
<path fill="none" stroke="#000000" d="M287.8274,-504.9465C287.906,-496.776 287.991,-487.9318 288.0734,-479.3697"/>
<polygon fill="#000000" stroke="#000000" points="291.5754,-479.1632 288.1718,-469.13 284.5757,-479.0958 291.5754,-479.1632"/>
</g>
<!-- 8 -->
<g id="node9" class="node">
<title>8</title>
<polygon fill="none" stroke="#000000" points="229.5,-365 113.5,-365 113.5,-297 229.5,-297 229.5,-365"/>
<text text-anchor="middle" x="171.5" y="-349.8" font-family="Helvetica,sans-Serif" font-size="14.00" fill="#000000">X[4] &lt;= &#45;46.302</text>
<text text-anchor="middle" x="171.5" y="-334.8" font-family="Helvetica,sans-Serif" font-size="14.00" fill="#000000">gini = 0.375</text>
<text text-anchor="middle" x="171.5" y="-319.8" font-family="Helvetica,sans-Serif" font-size="14.00" fill="#000000">samples = 8</text>
<text text-anchor="middle" x="171.5" y="-304.8" font-family="Helvetica,sans-Serif" font-size="14.00" fill="#000000">value = [2, 6]</text>
</g>
<!-- 7&#45;&gt;8 -->
<g id="edge8" class="edge">
<title>7&#45;&gt;8</title>
<path fill="none" stroke="#000000" d="M250.1898,-400.9465C239.7859,-391.6986 228.411,-381.5876 217.6243,-371.9994"/>
<polygon fill="#000000" stroke="#000000" points="219.6956,-369.1577 209.8962,-365.13 215.0451,-374.3896 219.6956,-369.1577"/>
</g>
<!-- 15 -->
<g id="node16" class="node">
<title>15</title>
<polygon fill="none" stroke="#000000" points="347,-357.5 248,-357.5 248,-304.5 347,-304.5 347,-357.5"/>
<text text-anchor="middle" x="297.5" y="-342.3" font-family="Helvetica,sans-Serif" font-size="14.00" fill="#000000">gini = 0.0</text>
<text text-anchor="middle" x="297.5" y="-327.3" font-family="Helvetica,sans-Serif" font-size="14.00" fill="#000000">samples = 1</text>
<text text-anchor="middle" x="297.5" y="-312.3" font-family="Helvetica,sans-Serif" font-size="14.00" fill="#000000">value = [1, 0]</text>
</g>
<!-- 7&#45;&gt;15 -->
<g id="edge15" class="edge">
<title>7&#45;&gt;15</title>
<path fill="none" stroke="#000000" d="M291.4469,-400.9465C292.3716,-390.2621 293.3959,-378.4254 294.3349,-367.5742"/>
<polygon fill="#000000" stroke="#000000" points="297.8278,-367.8067 295.2031,-357.5422 290.8539,-367.2031 297.8278,-367.8067"/>
</g>
<!-- 9 -->
<g id="node10" class="node">
<title>9</title>
<polygon fill="none" stroke="#000000" points="166.5,-261 50.5,-261 50.5,-193 166.5,-193 166.5,-261"/>
<text text-anchor="middle" x="108.5" y="-245.8" font-family="Helvetica,sans-Serif" font-size="14.00" fill="#000000">X[4] &lt;= &#45;58.886</text>
<text text-anchor="middle" x="108.5" y="-230.8" font-family="Helvetica,sans-Serif" font-size="14.00" fill="#000000">gini = 0.48</text>
<text text-anchor="middle" x="108.5" y="-215.8" font-family="Helvetica,sans-Serif" font-size="14.00" fill="#000000">samples = 5</text>
<text text-anchor="middle" x="108.5" y="-200.8" font-family="Helvetica,sans-Serif" font-size="14.00" fill="#000000">value = [2, 3]</text>
</g>
<!-- 8&#45;&gt;9 -->
<g id="edge9" class="edge">
<title>8&#45;&gt;9</title>
<path fill="none" stroke="#000000" d="M150.8714,-296.9465C145.6501,-288.3271 139.9745,-278.9579 134.5245,-269.9611"/>
<polygon fill="#000000" stroke="#000000" points="137.3497,-267.8697 129.1749,-261.13 131.3626,-271.4965 137.3497,-267.8697"/>
</g>
<!-- 14 -->
<g id="node15" class="node">
<title>14</title>
<polygon fill="none" stroke="#000000" points="284,-253.5 185,-253.5 185,-200.5 284,-200.5 284,-253.5"/>
<text text-anchor="middle" x="234.5" y="-238.3" font-family="Helvetica,sans-Serif" font-size="14.00" fill="#000000">gini = 0.0</text>
<text text-anchor="middle" x="234.5" y="-223.3" font-family="Helvetica,sans-Serif" font-size="14.00" fill="#000000">samples = 3</text>
<text text-anchor="middle" x="234.5" y="-208.3" font-family="Helvetica,sans-Serif" font-size="14.00" fill="#000000">value = [0, 3]</text>
</g>
<!-- 8&#45;&gt;14 -->
<g id="edge14" class="edge">
<title>8&#45;&gt;14</title>
<path fill="none" stroke="#000000" d="M192.1286,-296.9465C198.8678,-285.8215 206.3637,-273.4473 213.1545,-262.237"/>
<polygon fill="#000000" stroke="#000000" points="216.2339,-263.9087 218.4216,-253.5422 210.2467,-260.2818 216.2339,-263.9087"/>
</g>
<!-- 10 -->
<g id="node11" class="node">
<title>10</title>
<polygon fill="none" stroke="#000000" points="99,-149.5 0,-149.5 0,-96.5 99,-96.5 99,-149.5"/>
<text text-anchor="middle" x="49.5" y="-134.3" font-family="Helvetica,sans-Serif" font-size="14.00" fill="#000000">gini = 0.0</text>
<text text-anchor="middle" x="49.5" y="-119.3" font-family="Helvetica,sans-Serif" font-size="14.00" fill="#000000">samples = 2</text>
<text text-anchor="middle" x="49.5" y="-104.3" font-family="Helvetica,sans-Serif" font-size="14.00" fill="#000000">value = [0, 2]</text>
</g>
<!-- 9&#45;&gt;10 -->
<g id="edge10" class="edge">
<title>9&#45;&gt;10</title>
<path fill="none" stroke="#000000" d="M89.1812,-192.9465C82.9324,-181.9316 75.9888,-169.6922 69.6793,-158.5703"/>
<polygon fill="#000000" stroke="#000000" points="72.5362,-156.513 64.5576,-149.5422 66.4477,-159.967 72.5362,-156.513"/>
</g>
<!-- 11 -->
<g id="node12" class="node">
<title>11</title>
<polygon fill="none" stroke="#000000" points="220,-157 117,-157 117,-89 220,-89 220,-157"/>
<text text-anchor="middle" x="168.5" y="-141.8" font-family="Helvetica,sans-Serif" font-size="14.00" fill="#000000">X[1] &lt;= 3.793</text>
<text text-anchor="middle" x="168.5" y="-126.8" font-family="Helvetica,sans-Serif" font-size="14.00" fill="#000000">gini = 0.444</text>
<text text-anchor="middle" x="168.5" y="-111.8" font-family="Helvetica,sans-Serif" font-size="14.00" fill="#000000">samples = 3</text>
<text text-anchor="middle" x="168.5" y="-96.8" font-family="Helvetica,sans-Serif" font-size="14.00" fill="#000000">value = [2, 1]</text>
</g>
<!-- 9&#45;&gt;11 -->
<g id="edge11" class="edge">
<title>9&#45;&gt;11</title>
<path fill="none" stroke="#000000" d="M128.1462,-192.9465C133.119,-184.3271 138.5243,-174.9579 143.7148,-165.9611"/>
<polygon fill="#000000" stroke="#000000" points="146.844,-167.5409 148.8096,-157.13 140.7807,-164.0428 146.844,-167.5409"/>
</g>
<!-- 12 -->
<g id="node13" class="node">
<title>12</title>
<polygon fill="none" stroke="#000000" points="160,-53 61,-53 61,0 160,0 160,-53"/>
<text text-anchor="middle" x="110.5" y="-37.8" font-family="Helvetica,sans-Serif" font-size="14.00" fill="#000000">gini = 0.0</text>
<text text-anchor="middle" x="110.5" y="-22.8" font-family="Helvetica,sans-Serif" font-size="14.00" fill="#000000">samples = 1</text>
<text text-anchor="middle" x="110.5" y="-7.8" font-family="Helvetica,sans-Serif" font-size="14.00" fill="#000000">value = [0, 1]</text>
</g>
<!-- 11&#45;&gt;12 -->
<g id="edge12" class="edge">
<title>11&#45;&gt;12</title>
<path fill="none" stroke="#000000" d="M148.0514,-88.9777C142.7678,-80.187 137.0684,-70.7044 131.7452,-61.8477"/>
<polygon fill="#000000" stroke="#000000" points="134.7282,-60.0165 126.5768,-53.2485 128.7285,-63.6225 134.7282,-60.0165"/>
</g>
<!-- 13 -->
<g id="node14" class="node">
<title>13</title>
<polygon fill="none" stroke="#000000" points="277,-53 178,-53 178,0 277,0 277,-53"/>
<text text-anchor="middle" x="227.5" y="-37.8" font-family="Helvetica,sans-Serif" font-size="14.00" fill="#000000">gini = 0.0</text>
<text text-anchor="middle" x="227.5" y="-22.8" font-family="Helvetica,sans-Serif" font-size="14.00" fill="#000000">samples = 2</text>
<text text-anchor="middle" x="227.5" y="-7.8" font-family="Helvetica,sans-Serif" font-size="14.00" fill="#000000">value = [2, 0]</text>
</g>
<!-- 11&#45;&gt;13 -->
<g id="edge13" class="edge">
<title>11&#45;&gt;13</title>
<path fill="none" stroke="#000000" d="M189.3012,-88.9777C194.6758,-80.187 200.4735,-70.7044 205.8885,-61.8477"/>
<polygon fill="#000000" stroke="#000000" points="208.9158,-63.6059 211.146,-53.2485 202.9436,-59.9545 208.9158,-63.6059"/>
</g>
<!-- 19 -->
<g id="node20" class="node">
<title>19</title>
<polygon fill="none" stroke="#000000" points="714.5,-781 610.5,-781 610.5,-713 714.5,-713 714.5,-781"/>
<text text-anchor="middle" x="662.5" y="-765.8" font-family="Helvetica,sans-Serif" font-size="14.00" fill="#000000">X[0] &lt;= 98.5</text>
<text text-anchor="middle" x="662.5" y="-750.8" font-family="Helvetica,sans-Serif" font-size="14.00" fill="#000000">gini = 0.48</text>
<text text-anchor="middle" x="662.5" y="-735.8" font-family="Helvetica,sans-Serif" font-size="14.00" fill="#000000">samples = 15</text>
<text text-anchor="middle" x="662.5" y="-720.8" font-family="Helvetica,sans-Serif" font-size="14.00" fill="#000000">value = [9, 6]</text>
</g>
<!-- 18&#45;&gt;19 -->
<g id="edge19" class="edge">
<title>18&#45;&gt;19</title>
<path fill="none" stroke="#000000" d="M663.1726,-816.9465C663.094,-808.776 663.009,-799.9318 662.9266,-791.3697"/>
<polygon fill="#000000" stroke="#000000" points="666.4243,-791.0958 662.8282,-781.13 659.4246,-791.1632 666.4243,-791.0958"/>
</g>
<!-- 30 -->
<g id="node31" class="node">
<title>30</title>
<polygon fill="none" stroke="#000000" points="850.5,-781 734.5,-781 734.5,-713 850.5,-713 850.5,-781"/>
<text text-anchor="middle" x="792.5" y="-765.8" font-family="Helvetica,sans-Serif" font-size="14.00" fill="#000000">X[4] &lt;= &#45;45.372</text>
<text text-anchor="middle" x="792.5" y="-750.8" font-family="Helvetica,sans-Serif" font-size="14.00" fill="#000000">gini = 0.157</text>
<text text-anchor="middle" x="792.5" y="-735.8" font-family="Helvetica,sans-Serif" font-size="14.00" fill="#000000">samples = 35</text>
<text text-anchor="middle" x="792.5" y="-720.8" font-family="Helvetica,sans-Serif" font-size="14.00" fill="#000000">value = [3, 32]</text>
</g>
<!-- 18&#45;&gt;30 -->
<g id="edge30" class="edge">
<title>18&#45;&gt;30</title>
<path fill="none" stroke="#000000" d="M705.7394,-816.9465C717.4331,-807.519 730.2394,-797.1946 742.337,-787.4415"/>
<polygon fill="#000000" stroke="#000000" points="744.5773,-790.1312 750.1657,-781.13 740.1838,-784.6816 744.5773,-790.1312"/>
</g>
<!-- 20 -->
<g id="node21" class="node">
<title>20</title>
<polygon fill="none" stroke="#000000" points="586,-669.5 487,-669.5 487,-616.5 586,-616.5 586,-669.5"/>
<text text-anchor="middle" x="536.5" y="-654.3" font-family="Helvetica,sans-Serif" font-size="14.00" fill="#000000">gini = 0.0</text>
<text text-anchor="middle" x="536.5" y="-639.3" font-family="Helvetica,sans-Serif" font-size="14.00" fill="#000000">samples = 6</text>
<text text-anchor="middle" x="536.5" y="-624.3" font-family="Helvetica,sans-Serif" font-size="14.00" fill="#000000">value = [6, 0]</text>
</g>
<!-- 19&#45;&gt;20 -->
<g id="edge20" class="edge">
<title>19&#45;&gt;20</title>
<path fill="none" stroke="#000000" d="M621.2429,-712.9465C606.8303,-701.0504 590.6873,-687.726 576.3883,-675.9237"/>
<polygon fill="#000000" stroke="#000000" points="578.5971,-673.2086 568.6569,-669.5422 574.1411,-678.6071 578.5971,-673.2086"/>
</g>
<!-- 21 -->
<g id="node22" class="node">
<title>21</title>
<polygon fill="none" stroke="#000000" points="720.5,-677 604.5,-677 604.5,-609 720.5,-609 720.5,-677"/>
<text text-anchor="middle" x="662.5" y="-661.8" font-family="Helvetica,sans-Serif" font-size="14.00" fill="#000000">X[4] &lt;= &#45;63.639</text>
<text text-anchor="middle" x="662.5" y="-646.8" font-family="Helvetica,sans-Serif" font-size="14.00" fill="#000000">gini = 0.444</text>
<text text-anchor="middle" x="662.5" y="-631.8" font-family="Helvetica,sans-Serif" font-size="14.00" fill="#000000">samples = 9</text>
<text text-anchor="middle" x="662.5" y="-616.8" font-family="Helvetica,sans-Serif" font-size="14.00" fill="#000000">value = [3, 6]</text>
</g>
<!-- 19&#45;&gt;21 -->
<g id="edge21" class="edge">
<title>19&#45;&gt;21</title>
<path fill="none" stroke="#000000" d="M662.5,-712.9465C662.5,-704.776 662.5,-695.9318 662.5,-687.3697"/>
<polygon fill="#000000" stroke="#000000" points="666.0001,-687.13 662.5,-677.13 659.0001,-687.13 666.0001,-687.13"/>
</g>
<!-- 22 -->
<g id="node23" class="node">
<title>22</title>
<polygon fill="none" stroke="#000000" points="598,-573 495,-573 495,-505 598,-505 598,-573"/>
<text text-anchor="middle" x="546.5" y="-557.8" font-family="Helvetica,sans-Serif" font-size="14.00" fill="#000000">X[3] &lt;= 25.49</text>
<text text-anchor="middle" x="546.5" y="-542.8" font-family="Helvetica,sans-Serif" font-size="14.00" fill="#000000">gini = 0.278</text>
<text text-anchor="middle" x="546.5" y="-527.8" font-family="Helvetica,sans-Serif" font-size="14.00" fill="#000000">samples = 6</text>
<text text-anchor="middle" x="546.5" y="-512.8" font-family="Helvetica,sans-Serif" font-size="14.00" fill="#000000">value = [1, 5]</text>
</g>
<!-- 21&#45;&gt;22 -->
<g id="edge22" class="edge">
<title>21&#45;&gt;22</title>
<path fill="none" stroke="#000000" d="M624.5173,-608.9465C614.2023,-599.6986 602.9246,-589.5876 592.2301,-579.9994"/>
<polygon fill="#000000" stroke="#000000" points="594.3502,-577.1995 584.5681,-573.13 589.6774,-582.4115 594.3502,-577.1995"/>
</g>
<!-- 27 -->
<g id="node28" class="node">
<title>27</title>
<polygon fill="none" stroke="#000000" points="719,-573 616,-573 616,-505 719,-505 719,-573"/>
<text text-anchor="middle" x="667.5" y="-557.8" font-family="Helvetica,sans-Serif" font-size="14.00" fill="#000000">X[0] &lt;= 107.0</text>
<text text-anchor="middle" x="667.5" y="-542.8" font-family="Helvetica,sans-Serif" font-size="14.00" fill="#000000">gini = 0.444</text>
<text text-anchor="middle" x="667.5" y="-527.8" font-family="Helvetica,sans-Serif" font-size="14.00" fill="#000000">samples = 3</text>
<text text-anchor="middle" x="667.5" y="-512.8" font-family="Helvetica,sans-Serif" font-size="14.00" fill="#000000">value = [2, 1]</text>
</g>
<!-- 21&#45;&gt;27 -->
<g id="edge27" class="edge">
<title>21&#45;&gt;27</title>
<path fill="none" stroke="#000000" d="M664.1372,-608.9465C664.53,-600.776 664.9552,-591.9318 665.3668,-583.3697"/>
<polygon fill="#000000" stroke="#000000" points="668.8748,-583.2866 665.8591,-573.13 661.8829,-582.9504 668.8748,-583.2866"/>
</g>
<!-- 23 -->
<g id="node24" class="node">
<title>23</title>
<polygon fill="none" stroke="#000000" points="481,-469 378,-469 378,-401 481,-401 481,-469"/>
<text text-anchor="middle" x="429.5" y="-453.8" font-family="Helvetica,sans-Serif" font-size="14.00" fill="#000000">X[3] &lt;= 23.71</text>
<text text-anchor="middle" x="429.5" y="-438.8" font-family="Helvetica,sans-Serif" font-size="14.00" fill="#000000">gini = 0.5</text>
<text text-anchor="middle" x="429.5" y="-423.8" font-family="Helvetica,sans-Serif" font-size="14.00" fill="#000000">samples = 2</text>
<text text-anchor="middle" x="429.5" y="-408.8" font-family="Helvetica,sans-Serif" font-size="14.00" fill="#000000">value = [1, 1]</text>
</g>
<!-- 22&#45;&gt;23 -->
<g id="edge23" class="edge">
<title>22&#45;&gt;23</title>
<path fill="none" stroke="#000000" d="M508.1898,-504.9465C497.7859,-495.6986 486.411,-485.5876 475.6243,-475.9994"/>
<polygon fill="#000000" stroke="#000000" points="477.6956,-473.1577 467.8962,-469.13 473.0451,-478.3896 477.6956,-473.1577"/>
</g>
<!-- 26 -->
<g id="node27" class="node">
<title>26</title>
<polygon fill="none" stroke="#000000" points="598,-461.5 499,-461.5 499,-408.5 598,-408.5 598,-461.5"/>
<text text-anchor="middle" x="548.5" y="-446.3" font-family="Helvetica,sans-Serif" font-size="14.00" fill="#000000">gini = 0.0</text>
<text text-anchor="middle" x="548.5" y="-431.3" font-family="Helvetica,sans-Serif" font-size="14.00" fill="#000000">samples = 4</text>
<text text-anchor="middle" x="548.5" y="-416.3" font-family="Helvetica,sans-Serif" font-size="14.00" fill="#000000">value = [0, 4]</text>
</g>
<!-- 22&#45;&gt;26 -->
<g id="edge26" class="edge">
<title>22&#45;&gt;26</title>
<path fill="none" stroke="#000000" d="M547.1549,-504.9465C547.3603,-494.2621 547.588,-482.4254 547.7966,-471.5742"/>
<polygon fill="#000000" stroke="#000000" points="551.2966,-471.6076 547.9896,-461.5422 544.2979,-471.473 551.2966,-471.6076"/>
</g>
<!-- 24 -->
<g id="node25" class="node">
<title>24</title>
<polygon fill="none" stroke="#000000" points="474,-357.5 375,-357.5 375,-304.5 474,-304.5 474,-357.5"/>
<text text-anchor="middle" x="424.5" y="-342.3" font-family="Helvetica,sans-Serif" font-size="14.00" fill="#000000">gini = 0.0</text>
<text text-anchor="middle" x="424.5" y="-327.3" font-family="Helvetica,sans-Serif" font-size="14.00" fill="#000000">samples = 1</text>
<text text-anchor="middle" x="424.5" y="-312.3" font-family="Helvetica,sans-Serif" font-size="14.00" fill="#000000">value = [0, 1]</text>
</g>
<!-- 23&#45;&gt;24 -->
<g id="edge24" class="edge">
<title>23&#45;&gt;24</title>
<path fill="none" stroke="#000000" d="M427.8628,-400.9465C427.3491,-390.2621 426.7801,-378.4254 426.2584,-367.5742"/>
<polygon fill="#000000" stroke="#000000" points="429.7523,-367.3625 425.7761,-357.5422 422.7604,-367.6987 429.7523,-367.3625"/>
</g>
<!-- 25 -->
<g id="node26" class="node">
<title>25</title>
<polygon fill="none" stroke="#000000" points="591,-357.5 492,-357.5 492,-304.5 591,-304.5 591,-357.5"/>
<text text-anchor="middle" x="541.5" y="-342.3" font-family="Helvetica,sans-Serif" font-size="14.00" fill="#000000">gini = 0.0</text>
<text text-anchor="middle" x="541.5" y="-327.3" font-family="Helvetica,sans-Serif" font-size="14.00" fill="#000000">samples = 1</text>
<text text-anchor="middle" x="541.5" y="-312.3" font-family="Helvetica,sans-Serif" font-size="14.00" fill="#000000">value = [1, 0]</text>
</g>
<!-- 23&#45;&gt;25 -->
<g id="edge25" class="edge">
<title>23&#45;&gt;25</title>
<path fill="none" stroke="#000000" d="M466.173,-400.9465C478.7469,-389.2707 492.8026,-376.219 505.3359,-364.5809"/>
<polygon fill="#000000" stroke="#000000" points="507.9698,-366.9115 512.9161,-357.5422 503.2066,-361.7819 507.9698,-366.9115"/>
</g>
<!-- 28 -->
<g id="node29" class="node">
<title>28</title>
<polygon fill="none" stroke="#000000" points="717,-461.5 618,-461.5 618,-408.5 717,-408.5 717,-461.5"/>
<text text-anchor="middle" x="667.5" y="-446.3" font-family="Helvetica,sans-Serif" font-size="14.00" fill="#000000">gini = 0.0</text>
<text text-anchor="middle" x="667.5" y="-431.3" font-family="Helvetica,sans-Serif" font-size="14.00" fill="#000000">samples = 2</text>
<text text-anchor="middle" x="667.5" y="-416.3" font-family="Helvetica,sans-Serif" font-size="14.00" fill="#000000">value = [2, 0]</text>
</g>
<!-- 27&#45;&gt;28 -->
<g id="edge28" class="edge">
<title>27&#45;&gt;28</title>
<path fill="none" stroke="#000000" d="M667.5,-504.9465C667.5,-494.2621 667.5,-482.4254 667.5,-471.5742"/>
<polygon fill="#000000" stroke="#000000" points="671.0001,-471.5421 667.5,-461.5422 664.0001,-471.5422 671.0001,-471.5421"/>
</g>
<!-- 29 -->
<g id="node30" class="node">
<title>29</title>
<polygon fill="none" stroke="#000000" points="834,-461.5 735,-461.5 735,-408.5 834,-408.5 834,-461.5"/>
<text text-anchor="middle" x="784.5" y="-446.3" font-family="Helvetica,sans-Serif" font-size="14.00" fill="#000000">gini = 0.0</text>
<text text-anchor="middle" x="784.5" y="-431.3" font-family="Helvetica,sans-Serif" font-size="14.00" fill="#000000">samples = 1</text>
<text text-anchor="middle" x="784.5" y="-416.3" font-family="Helvetica,sans-Serif" font-size="14.00" fill="#000000">value = [0, 1]</text>
</g>
<!-- 27&#45;&gt;29 -->
<g id="edge29" class="edge">
<title>27&#45;&gt;29</title>
<path fill="none" stroke="#000000" d="M705.8102,-504.9465C719.0694,-493.1606 733.9058,-479.9726 747.0916,-468.2519"/>
<polygon fill="#000000" stroke="#000000" points="749.4912,-470.8018 754.6401,-461.5422 744.8407,-465.5699 749.4912,-470.8018"/>
</g>
<!-- 31 -->
<g id="node32" class="node">
<title>31</title>
<polygon fill="none" stroke="#000000" points="846,-677 739,-677 739,-609 846,-609 846,-677"/>
<text text-anchor="middle" x="792.5" y="-661.8" font-family="Helvetica,sans-Serif" font-size="14.00" fill="#000000">X[2] &lt;= 50.0</text>
<text text-anchor="middle" x="792.5" y="-646.8" font-family="Helvetica,sans-Serif" font-size="14.00" fill="#000000">gini = 0.337</text>
<text text-anchor="middle" x="792.5" y="-631.8" font-family="Helvetica,sans-Serif" font-size="14.00" fill="#000000">samples = 14</text>
<text text-anchor="middle" x="792.5" y="-616.8" font-family="Helvetica,sans-Serif" font-size="14.00" fill="#000000">value = [3, 11]</text>
</g>
<!-- 30&#45;&gt;31 -->
<g id="edge31" class="edge">
<title>30&#45;&gt;31</title>
<path fill="none" stroke="#000000" d="M792.5,-712.9465C792.5,-704.776 792.5,-695.9318 792.5,-687.3697"/>
<polygon fill="#000000" stroke="#000000" points="796.0001,-687.13 792.5,-677.13 789.0001,-687.13 796.0001,-687.13"/>
</g>
<!-- 40 -->
<g id="node41" class="node">
<title>40</title>
<polygon fill="none" stroke="#000000" points="971,-669.5 864,-669.5 864,-616.5 971,-616.5 971,-669.5"/>
<text text-anchor="middle" x="917.5" y="-654.3" font-family="Helvetica,sans-Serif" font-size="14.00" fill="#000000">gini = 0.0</text>
<text text-anchor="middle" x="917.5" y="-639.3" font-family="Helvetica,sans-Serif" font-size="14.00" fill="#000000">samples = 21</text>
<text text-anchor="middle" x="917.5" y="-624.3" font-family="Helvetica,sans-Serif" font-size="14.00" fill="#000000">value = [0, 21]</text>
</g>
<!-- 30&#45;&gt;40 -->
<g id="edge40" class="edge">
<title>30&#45;&gt;40</title>
<path fill="none" stroke="#000000" d="M833.4297,-712.9465C847.5955,-701.1606 863.4463,-687.9726 877.5338,-676.2519"/>
<polygon fill="#000000" stroke="#000000" points="880.1496,-678.6285 885.5984,-669.5422 875.6725,-673.2474 880.1496,-678.6285"/>
</g>
<!-- 32 -->
<g id="node33" class="node">
<title>32</title>
<polygon fill="none" stroke="#000000" points="838,-565.5 739,-565.5 739,-512.5 838,-512.5 838,-565.5"/>
<text text-anchor="middle" x="788.5" y="-550.3" font-family="Helvetica,sans-Serif" font-size="14.00" fill="#000000">gini = 0.0</text>
<text text-anchor="middle" x="788.5" y="-535.3" font-family="Helvetica,sans-Serif" font-size="14.00" fill="#000000">samples = 1</text>
<text text-anchor="middle" x="788.5" y="-520.3" font-family="Helvetica,sans-Serif" font-size="14.00" fill="#000000">value = [1, 0]</text>
</g>
<!-- 31&#45;&gt;32 -->
<g id="edge32" class="edge">
<title>31&#45;&gt;32</title>
<path fill="none" stroke="#000000" d="M791.1903,-608.9465C790.7793,-598.2621 790.3241,-586.4254 789.9067,-575.5742"/>
<polygon fill="#000000" stroke="#000000" points="793.4027,-575.4002 789.5209,-565.5422 786.4079,-575.6693 793.4027,-575.4002"/>
</g>
<!-- 33 -->
<g id="node34" class="node">
<title>33</title>
<polygon fill="none" stroke="#000000" points="963,-573 856,-573 856,-505 963,-505 963,-573"/>
<text text-anchor="middle" x="909.5" y="-557.8" font-family="Helvetica,sans-Serif" font-size="14.00" fill="#000000">X[5] &lt;= &#45;5.302</text>
<text text-anchor="middle" x="909.5" y="-542.8" font-family="Helvetica,sans-Serif" font-size="14.00" fill="#000000">gini = 0.26</text>
<text text-anchor="middle" x="909.5" y="-527.8" font-family="Helvetica,sans-Serif" font-size="14.00" fill="#000000">samples = 13</text>
<text text-anchor="middle" x="909.5" y="-512.8" font-family="Helvetica,sans-Serif" font-size="14.00" fill="#000000">value = [2, 11]</text>
</g>
<!-- 31&#45;&gt;33 -->
<g id="edge33" class="edge">
<title>31&#45;&gt;33</title>
<path fill="none" stroke="#000000" d="M830.8102,-608.9465C841.2141,-599.6986 852.589,-589.5876 863.3757,-579.9994"/>
<polygon fill="#000000" stroke="#000000" points="865.9549,-582.3896 871.1038,-573.13 861.3044,-577.1577 865.9549,-582.3896"/>
</g>
<!-- 34 -->
<g id="node35" class="node">
<title>34</title>
<polygon fill="none" stroke="#000000" points="961,-469 854,-469 854,-401 961,-401 961,-469"/>
<text text-anchor="middle" x="907.5" y="-453.8" font-family="Helvetica,sans-Serif" font-size="14.00" fill="#000000">X[2] &lt;= 61.0</text>
<text text-anchor="middle" x="907.5" y="-438.8" font-family="Helvetica,sans-Serif" font-size="14.00" fill="#000000">gini = 0.153</text>
<text text-anchor="middle" x="907.5" y="-423.8" font-family="Helvetica,sans-Serif" font-size="14.00" fill="#000000">samples = 12</text>
<text text-anchor="middle" x="907.5" y="-408.8" font-family="Helvetica,sans-Serif" font-size="14.00" fill="#000000">value = [1, 11]</text>
</g>
<!-- 33&#45;&gt;34 -->
<g id="edge34" class="edge">
<title>33&#45;&gt;34</title>
<path fill="none" stroke="#000000" d="M908.8451,-504.9465C908.688,-496.776 908.5179,-487.9318 908.3533,-479.3697"/>
<polygon fill="#000000" stroke="#000000" points="911.8481,-479.0608 908.1563,-469.13 904.8494,-479.1955 911.8481,-479.0608"/>
</g>
<!-- 39 -->
<g id="node40" class="node">
<title>39</title>
<polygon fill="none" stroke="#000000" points="1078,-461.5 979,-461.5 979,-408.5 1078,-408.5 1078,-461.5"/>
<text text-anchor="middle" x="1028.5" y="-446.3" font-family="Helvetica,sans-Serif" font-size="14.00" fill="#000000">gini = 0.0</text>
<text text-anchor="middle" x="1028.5" y="-431.3" font-family="Helvetica,sans-Serif" font-size="14.00" fill="#000000">samples = 1</text>
<text text-anchor="middle" x="1028.5" y="-416.3" font-family="Helvetica,sans-Serif" font-size="14.00" fill="#000000">value = [1, 0]</text>
</g>
<!-- 33&#45;&gt;39 -->
<g id="edge39" class="edge">
<title>33&#45;&gt;39</title>
<path fill="none" stroke="#000000" d="M948.4651,-504.9465C961.9509,-493.1606 977.0409,-479.9726 990.4521,-468.2519"/>
<polygon fill="#000000" stroke="#000000" points="992.9031,-470.7582 998.1296,-461.5422 988.2967,-465.4874 992.9031,-470.7582"/>
</g>
<!-- 35 -->
<g id="node36" class="node">
<title>35</title>
<polygon fill="none" stroke="#000000" points="901,-365 790,-365 790,-297 901,-297 901,-365"/>
<text text-anchor="middle" x="845.5" y="-349.8" font-family="Helvetica,sans-Serif" font-size="14.00" fill="#000000">X[3] &lt;= 24.621</text>
<text text-anchor="middle" x="845.5" y="-334.8" font-family="Helvetica,sans-Serif" font-size="14.00" fill="#000000">gini = 0.375</text>
<text text-anchor="middle" x="845.5" y="-319.8" font-family="Helvetica,sans-Serif" font-size="14.00" fill="#000000">samples = 4</text>
<text text-anchor="middle" x="845.5" y="-304.8" font-family="Helvetica,sans-Serif" font-size="14.00" fill="#000000">value = [1, 3]</text>
</g>
<!-- 34&#45;&gt;35 -->
<g id="edge35" class="edge">
<title>34&#45;&gt;35</title>
<path fill="none" stroke="#000000" d="M887.1989,-400.9465C882.0604,-392.3271 876.4749,-382.9579 871.1114,-373.9611"/>
<polygon fill="#000000" stroke="#000000" points="873.9737,-371.9272 865.8467,-365.13 867.9611,-375.5117 873.9737,-371.9272"/>
</g>
<!-- 38 -->
<g id="node39" class="node">
<title>38</title>
<polygon fill="none" stroke="#000000" points="1018,-357.5 919,-357.5 919,-304.5 1018,-304.5 1018,-357.5"/>
<text text-anchor="middle" x="968.5" y="-342.3" font-family="Helvetica,sans-Serif" font-size="14.00" fill="#000000">gini = 0.0</text>
<text text-anchor="middle" x="968.5" y="-327.3" font-family="Helvetica,sans-Serif" font-size="14.00" fill="#000000">samples = 8</text>
<text text-anchor="middle" x="968.5" y="-312.3" font-family="Helvetica,sans-Serif" font-size="14.00" fill="#000000">value = [0, 8]</text>
</g>
<!-- 34&#45;&gt;38 -->
<g id="edge38" class="edge">
<title>34&#45;&gt;38</title>
<path fill="none" stroke="#000000" d="M927.4737,-400.9465C933.999,-389.8215 941.2569,-377.4473 947.8322,-366.237"/>
<polygon fill="#000000" stroke="#000000" points="950.8916,-367.9387 952.932,-357.5422 944.8536,-364.3971 950.8916,-367.9387"/>
</g>
<!-- 36 -->
<g id="node37" class="node">
<title>36</title>
<polygon fill="none" stroke="#000000" points="836,-253.5 737,-253.5 737,-200.5 836,-200.5 836,-253.5"/>
<text text-anchor="middle" x="786.5" y="-238.3" font-family="Helvetica,sans-Serif" font-size="14.00" fill="#000000">gini = 0.0</text>
<text text-anchor="middle" x="786.5" y="-223.3" font-family="Helvetica,sans-Serif" font-size="14.00" fill="#000000">samples = 3</text>
<text text-anchor="middle" x="786.5" y="-208.3" font-family="Helvetica,sans-Serif" font-size="14.00" fill="#000000">value = [0, 3]</text>
</g>
<!-- 35&#45;&gt;36 -->
<g id="edge36" class="edge">
<title>35&#45;&gt;36</title>
<path fill="none" stroke="#000000" d="M826.1812,-296.9465C819.9324,-285.9316 812.9888,-273.6922 806.6793,-262.5703"/>
<polygon fill="#000000" stroke="#000000" points="809.5362,-260.513 801.5576,-253.5422 803.4477,-263.967 809.5362,-260.513"/>
</g>
<!-- 37 -->
<g id="node38" class="node">
<title>37</title>
<polygon fill="none" stroke="#000000" points="953,-253.5 854,-253.5 854,-200.5 953,-200.5 953,-253.5"/>
<text text-anchor="middle" x="903.5" y="-238.3" font-family="Helvetica,sans-Serif" font-size="14.00" fill="#000000">gini = 0.0</text>
<text text-anchor="middle" x="903.5" y="-223.3" font-family="Helvetica,sans-Serif" font-size="14.00" fill="#000000">samples = 1</text>
<text text-anchor="middle" x="903.5" y="-208.3" font-family="Helvetica,sans-Serif" font-size="14.00" fill="#000000">value = [1, 0]</text>
</g>
<!-- 35&#45;&gt;37 -->
<g id="edge37" class="edge">
<title>35&#45;&gt;37</title>
<path fill="none" stroke="#000000" d="M864.4914,-296.9465C870.6343,-285.9316 877.4601,-273.6922 883.6627,-262.5703"/>
<polygon fill="#000000" stroke="#000000" points="886.8837,-263.9806 888.6976,-253.5422 880.7701,-260.5711 886.8837,-263.9806"/>
</g>
</g>
</svg>
