<?xml version="1.0" encoding="UTF-8" standalone="no"?>
<!DOCTYPE svg PUBLIC "-//W3C//DTD SVG 1.1//EN"
 "http://www.w3.org/Graphics/SVG/1.1/DTD/svg11.dtd">
<!-- Generated by graphviz version 2.40.1 (20161225.0304)
 -->
<!-- Title: Tree Pages: 1 -->
<svg width="983pt" height="789pt"
 viewBox="0.00 0.00 983.00 789.00" xmlns="http://www.w3.org/2000/svg" xmlns:xlink="http://www.w3.org/1999/xlink">
<g id="graph0" class="graph" transform="scale(1 1) rotate(0) translate(4 785)">
<title>Tree</title>
<polygon fill="#ffffff" stroke="transparent" points="-4,4 -4,-785 979,-785 979,4 -4,4"/>
<!-- 0 -->
<g id="node1" class="node">
<title>0</title>
<polygon fill="none" stroke="#000000" points="371.5,-781 255.5,-781 255.5,-713 371.5,-713 371.5,-781"/>
<text text-anchor="middle" x="313.5" y="-765.8" font-family="Helvetica,sans-Serif" font-size="14.00" fill="#000000">X[0] &lt;= 94.5</text>
<text text-anchor="middle" x="313.5" y="-750.8" font-family="Helvetica,sans-Serif" font-size="14.00" fill="#000000">gini = 0.481</text>
<text text-anchor="middle" x="313.5" y="-735.8" font-family="Helvetica,sans-Serif" font-size="14.00" fill="#000000">samples = 72</text>
<text text-anchor="middle" x="313.5" y="-720.8" font-family="Helvetica,sans-Serif" font-size="14.00" fill="#000000">value = [29, 43]</text>
</g>
<!-- 1 -->
<g id="node2" class="node">
<title>1</title>
<polygon fill="none" stroke="#000000" points="304.5,-677 188.5,-677 188.5,-609 304.5,-609 304.5,-677"/>
<text text-anchor="middle" x="246.5" y="-661.8" font-family="Helvetica,sans-Serif" font-size="14.00" fill="#000000">X[4] &lt;= &#45;61.116</text>
<text text-anchor="middle" x="246.5" y="-646.8" font-family="Helvetica,sans-Serif" font-size="14.00" fill="#000000">gini = 0.467</text>
<text text-anchor="middle" x="246.5" y="-631.8" font-family="Helvetica,sans-Serif" font-size="14.00" fill="#000000">samples = 35</text>
<text text-anchor="middle" x="246.5" y="-616.8" font-family="Helvetica,sans-Serif" font-size="14.00" fill="#000000">value = [22, 13]</text>
</g>
<!-- 0&#45;&gt;1 -->
<g id="edge1" class="edge">
<title>0&#45;&gt;1</title>
<path fill="none" stroke="#000000" d="M291.5617,-712.9465C285.951,-704.2373 279.8471,-694.7626 273.9958,-685.6801"/>
<polygon fill="#000000" stroke="#000000" points="276.8457,-683.641 268.4876,-677.13 270.9611,-687.4321 276.8457,-683.641"/>
<text text-anchor="middle" x="263.2006" y="-697.8646" font-family="Helvetica,sans-Serif" font-size="14.00" fill="#000000">True</text>
</g>
<!-- 16 -->
<g id="node17" class="node">
<title>16</title>
<polygon fill="none" stroke="#000000" points="489.5,-677 373.5,-677 373.5,-609 489.5,-609 489.5,-677"/>
<text text-anchor="middle" x="431.5" y="-661.8" font-family="Helvetica,sans-Serif" font-size="14.00" fill="#000000">X[4] &lt;= &#45;68.555</text>
<text text-anchor="middle" x="431.5" y="-646.8" font-family="Helvetica,sans-Serif" font-size="14.00" fill="#000000">gini = 0.307</text>
<text text-anchor="middle" x="431.5" y="-631.8" font-family="Helvetica,sans-Serif" font-size="14.00" fill="#000000">samples = 37</text>
<text text-anchor="middle" x="431.5" y="-616.8" font-family="Helvetica,sans-Serif" font-size="14.00" fill="#000000">value = [7, 30]</text>
</g>
<!-- 0&#45;&gt;16 -->
<g id="edge16" class="edge">
<title>0&#45;&gt;16</title>
<path fill="none" stroke="#000000" d="M352.1376,-712.9465C362.6304,-703.6986 374.1026,-693.5876 384.9814,-683.9994"/>
<polygon fill="#000000" stroke="#000000" points="387.5877,-686.3678 392.7756,-677.13 382.9593,-681.1163 387.5877,-686.3678"/>
<text text-anchor="middle" x="391.2021" y="-698.3804" font-family="Helvetica,sans-Serif" font-size="14.00" fill="#000000">False</text>
</g>
<!-- 2 -->
<g id="node3" class="node">
<title>2</title>
<polygon fill="none" stroke="#000000" points="170,-565.5 71,-565.5 71,-512.5 170,-512.5 170,-565.5"/>
<text text-anchor="middle" x="120.5" y="-550.3" font-family="Helvetica,sans-Serif" font-size="14.00" fill="#000000">gini = 0.0</text>
<text text-anchor="middle" x="120.5" y="-535.3" font-family="Helvetica,sans-Serif" font-size="14.00" fill="#000000">samples = 8</text>
<text text-anchor="middle" x="120.5" y="-520.3" font-family="Helvetica,sans-Serif" font-size="14.00" fill="#000000">value = [8, 0]</text>
</g>
<!-- 1&#45;&gt;2 -->
<g id="edge2" class="edge">
<title>1&#45;&gt;2</title>
<path fill="none" stroke="#000000" d="M205.2429,-608.9465C190.8303,-597.0504 174.6873,-583.726 160.3883,-571.9237"/>
<polygon fill="#000000" stroke="#000000" points="162.5971,-569.2086 152.6569,-565.5422 158.1411,-574.6071 162.5971,-569.2086"/>
</g>
<!-- 3 -->
<g id="node4" class="node">
<title>3</title>
<polygon fill="none" stroke="#000000" points="304.5,-573 188.5,-573 188.5,-505 304.5,-505 304.5,-573"/>
<text text-anchor="middle" x="246.5" y="-557.8" font-family="Helvetica,sans-Serif" font-size="14.00" fill="#000000">X[2] &lt;= 44.0</text>
<text text-anchor="middle" x="246.5" y="-542.8" font-family="Helvetica,sans-Serif" font-size="14.00" fill="#000000">gini = 0.499</text>
<text text-anchor="middle" x="246.5" y="-527.8" font-family="Helvetica,sans-Serif" font-size="14.00" fill="#000000">samples = 27</text>
<text text-anchor="middle" x="246.5" y="-512.8" font-family="Helvetica,sans-Serif" font-size="14.00" fill="#000000">value = [14, 13]</text>
</g>
<!-- 1&#45;&gt;3 -->
<g id="edge3" class="edge">
<title>1&#45;&gt;3</title>
<path fill="none" stroke="#000000" d="M246.5,-608.9465C246.5,-600.776 246.5,-591.9318 246.5,-583.3697"/>
<polygon fill="#000000" stroke="#000000" points="250.0001,-583.13 246.5,-573.13 243.0001,-583.13 250.0001,-583.13"/>
</g>
<!-- 4 -->
<g id="node5" class="node">
<title>4</title>
<polygon fill="none" stroke="#000000" points="175,-461.5 76,-461.5 76,-408.5 175,-408.5 175,-461.5"/>
<text text-anchor="middle" x="125.5" y="-446.3" font-family="Helvetica,sans-Serif" font-size="14.00" fill="#000000">gini = 0.0</text>
<text text-anchor="middle" x="125.5" y="-431.3" font-family="Helvetica,sans-Serif" font-size="14.00" fill="#000000">samples = 8</text>
<text text-anchor="middle" x="125.5" y="-416.3" font-family="Helvetica,sans-Serif" font-size="14.00" fill="#000000">value = [8, 0]</text>
</g>
<!-- 3&#45;&gt;4 -->
<g id="edge4" class="edge">
<title>3&#45;&gt;4</title>
<path fill="none" stroke="#000000" d="M206.8801,-504.9465C193.1676,-493.1606 177.8239,-479.9726 164.1873,-468.2519"/>
<polygon fill="#000000" stroke="#000000" points="166.2459,-465.4061 156.3808,-461.5422 161.6831,-470.7147 166.2459,-465.4061"/>
</g>
<!-- 5 -->
<g id="node6" class="node">
<title>5</title>
<polygon fill="none" stroke="#000000" points="300,-469 193,-469 193,-401 300,-401 300,-469"/>
<text text-anchor="middle" x="246.5" y="-453.8" font-family="Helvetica,sans-Serif" font-size="14.00" fill="#000000">X[1] &lt;= 3.278</text>
<text text-anchor="middle" x="246.5" y="-438.8" font-family="Helvetica,sans-Serif" font-size="14.00" fill="#000000">gini = 0.432</text>
<text text-anchor="middle" x="246.5" y="-423.8" font-family="Helvetica,sans-Serif" font-size="14.00" fill="#000000">samples = 19</text>
<text text-anchor="middle" x="246.5" y="-408.8" font-family="Helvetica,sans-Serif" font-size="14.00" fill="#000000">value = [6, 13]</text>
</g>
<!-- 3&#45;&gt;5 -->
<g id="edge5" class="edge">
<title>3&#45;&gt;5</title>
<path fill="none" stroke="#000000" d="M246.5,-504.9465C246.5,-496.776 246.5,-487.9318 246.5,-479.3697"/>
<polygon fill="#000000" stroke="#000000" points="250.0001,-479.13 246.5,-469.13 243.0001,-479.13 250.0001,-479.13"/>
</g>
<!-- 6 -->
<g id="node7" class="node">
<title>6</title>
<polygon fill="none" stroke="#000000" points="187,-357.5 88,-357.5 88,-304.5 187,-304.5 187,-357.5"/>
<text text-anchor="middle" x="137.5" y="-342.3" font-family="Helvetica,sans-Serif" font-size="14.00" fill="#000000">gini = 0.0</text>
<text text-anchor="middle" x="137.5" y="-327.3" font-family="Helvetica,sans-Serif" font-size="14.00" fill="#000000">samples = 2</text>
<text text-anchor="middle" x="137.5" y="-312.3" font-family="Helvetica,sans-Serif" font-size="14.00" fill="#000000">value = [2, 0]</text>
</g>
<!-- 5&#45;&gt;6 -->
<g id="edge6" class="edge">
<title>5&#45;&gt;6</title>
<path fill="none" stroke="#000000" d="M210.8093,-400.9465C198.5722,-389.2707 184.893,-376.219 172.6954,-364.5809"/>
<polygon fill="#000000" stroke="#000000" points="174.9694,-361.9131 165.3182,-357.5422 170.1372,-366.9777 174.9694,-361.9131"/>
</g>
<!-- 7 -->
<g id="node8" class="node">
<title>7</title>
<polygon fill="none" stroke="#000000" points="316,-365 205,-365 205,-297 316,-297 316,-365"/>
<text text-anchor="middle" x="260.5" y="-349.8" font-family="Helvetica,sans-Serif" font-size="14.00" fill="#000000">X[3] &lt;= 27.269</text>
<text text-anchor="middle" x="260.5" y="-334.8" font-family="Helvetica,sans-Serif" font-size="14.00" fill="#000000">gini = 0.36</text>
<text text-anchor="middle" x="260.5" y="-319.8" font-family="Helvetica,sans-Serif" font-size="14.00" fill="#000000">samples = 17</text>
<text text-anchor="middle" x="260.5" y="-304.8" font-family="Helvetica,sans-Serif" font-size="14.00" fill="#000000">value = [4, 13]</text>
</g>
<!-- 5&#45;&gt;7 -->
<g id="edge7" class="edge">
<title>5&#45;&gt;7</title>
<path fill="none" stroke="#000000" d="M251.0841,-400.9465C252.1961,-392.6863 253.4007,-383.7374 254.5651,-375.0875"/>
<polygon fill="#000000" stroke="#000000" points="258.0401,-375.5076 255.9056,-365.13 251.1027,-374.5736 258.0401,-375.5076"/>
</g>
<!-- 8 -->
<g id="node9" class="node">
<title>8</title>
<polygon fill="none" stroke="#000000" points="212,-253.5 113,-253.5 113,-200.5 212,-200.5 212,-253.5"/>
<text text-anchor="middle" x="162.5" y="-238.3" font-family="Helvetica,sans-Serif" font-size="14.00" fill="#000000">gini = 0.0</text>
<text text-anchor="middle" x="162.5" y="-223.3" font-family="Helvetica,sans-Serif" font-size="14.00" fill="#000000">samples = 7</text>
<text text-anchor="middle" x="162.5" y="-208.3" font-family="Helvetica,sans-Serif" font-size="14.00" fill="#000000">value = [0, 7]</text>
</g>
<!-- 7&#45;&gt;8 -->
<g id="edge8" class="edge">
<title>7&#45;&gt;8</title>
<path fill="none" stroke="#000000" d="M228.4111,-296.9465C217.5127,-285.3809 205.3422,-272.4652 194.4543,-260.9107"/>
<polygon fill="#000000" stroke="#000000" points="196.9162,-258.4198 187.5109,-253.5422 191.8217,-263.2204 196.9162,-258.4198"/>
</g>
<!-- 9 -->
<g id="node10" class="node">
<title>9</title>
<polygon fill="none" stroke="#000000" points="346.5,-261 230.5,-261 230.5,-193 346.5,-193 346.5,-261"/>
<text text-anchor="middle" x="288.5" y="-245.8" font-family="Helvetica,sans-Serif" font-size="14.00" fill="#000000">X[4] &lt;= &#45;43.875</text>
<text text-anchor="middle" x="288.5" y="-230.8" font-family="Helvetica,sans-Serif" font-size="14.00" fill="#000000">gini = 0.48</text>
<text text-anchor="middle" x="288.5" y="-215.8" font-family="Helvetica,sans-Serif" font-size="14.00" fill="#000000">samples = 10</text>
<text text-anchor="middle" x="288.5" y="-200.8" font-family="Helvetica,sans-Serif" font-size="14.00" fill="#000000">value = [4, 6]</text>
</g>
<!-- 7&#45;&gt;9 -->
<g id="edge9" class="edge">
<title>7&#45;&gt;9</title>
<path fill="none" stroke="#000000" d="M269.6682,-296.9465C271.9163,-288.5965 274.3539,-279.5427 276.7062,-270.8056"/>
<polygon fill="#000000" stroke="#000000" points="280.091,-271.6961 279.3112,-261.13 273.3317,-269.8762 280.091,-271.6961"/>
</g>
<!-- 10 -->
<g id="node11" class="node">
<title>10</title>
<polygon fill="none" stroke="#000000" points="219.5,-157 103.5,-157 103.5,-89 219.5,-89 219.5,-157"/>
<text text-anchor="middle" x="161.5" y="-141.8" font-family="Helvetica,sans-Serif" font-size="14.00" fill="#000000">X[4] &lt;= &#45;59.674</text>
<text text-anchor="middle" x="161.5" y="-126.8" font-family="Helvetica,sans-Serif" font-size="14.00" fill="#000000">gini = 0.375</text>
<text text-anchor="middle" x="161.5" y="-111.8" font-family="Helvetica,sans-Serif" font-size="14.00" fill="#000000">samples = 4</text>
<text text-anchor="middle" x="161.5" y="-96.8" font-family="Helvetica,sans-Serif" font-size="14.00" fill="#000000">value = [3, 1]</text>
</g>
<!-- 9&#45;&gt;10 -->
<g id="edge10" class="edge">
<title>9&#45;&gt;10</title>
<path fill="none" stroke="#000000" d="M246.9155,-192.9465C235.5127,-183.6088 223.0353,-173.3911 211.2257,-163.7203"/>
<polygon fill="#000000" stroke="#000000" points="213.1324,-160.7578 203.178,-157.13 208.6974,-166.1736 213.1324,-160.7578"/>
</g>
<!-- 13 -->
<g id="node14" class="node">
<title>13</title>
<polygon fill="none" stroke="#000000" points="353.5,-157 237.5,-157 237.5,-89 353.5,-89 353.5,-157"/>
<text text-anchor="middle" x="295.5" y="-141.8" font-family="Helvetica,sans-Serif" font-size="14.00" fill="#000000">X[5] &lt;= &#45;28.853</text>
<text text-anchor="middle" x="295.5" y="-126.8" font-family="Helvetica,sans-Serif" font-size="14.00" fill="#000000">gini = 0.278</text>
<text text-anchor="middle" x="295.5" y="-111.8" font-family="Helvetica,sans-Serif" font-size="14.00" fill="#000000">samples = 6</text>
<text text-anchor="middle" x="295.5" y="-96.8" font-family="Helvetica,sans-Serif" font-size="14.00" fill="#000000">value = [1, 5]</text>
</g>
<!-- 9&#45;&gt;13 -->
<g id="edge13" class="edge">
<title>9&#45;&gt;13</title>
<path fill="none" stroke="#000000" d="M290.7921,-192.9465C291.342,-184.776 291.9373,-175.9318 292.5136,-167.3697"/>
<polygon fill="#000000" stroke="#000000" points="296.0232,-167.3425 293.2028,-157.13 289.039,-166.8723 296.0232,-167.3425"/>
</g>
<!-- 11 -->
<g id="node12" class="node">
<title>11</title>
<polygon fill="none" stroke="#000000" points="99,-53 0,-53 0,0 99,0 99,-53"/>
<text text-anchor="middle" x="49.5" y="-37.8" font-family="Helvetica,sans-Serif" font-size="14.00" fill="#000000">gini = 0.0</text>
<text text-anchor="middle" x="49.5" y="-22.8" font-family="Helvetica,sans-Serif" font-size="14.00" fill="#000000">samples = 1</text>
<text text-anchor="middle" x="49.5" y="-7.8" font-family="Helvetica,sans-Serif" font-size="14.00" fill="#000000">value = [0, 1]</text>
</g>
<!-- 10&#45;&gt;11 -->
<g id="edge11" class="edge">
<title>10&#45;&gt;11</title>
<path fill="none" stroke="#000000" d="M122.013,-88.9777C111.0664,-79.546 99.1953,-69.3178 88.2889,-59.9208"/>
<polygon fill="#000000" stroke="#000000" points="90.4053,-57.1244 80.5449,-53.2485 85.8361,-62.4274 90.4053,-57.1244"/>
</g>
<!-- 12 -->
<g id="node13" class="node">
<title>12</title>
<polygon fill="none" stroke="#000000" points="216,-53 117,-53 117,0 216,0 216,-53"/>
<text text-anchor="middle" x="166.5" y="-37.8" font-family="Helvetica,sans-Serif" font-size="14.00" fill="#000000">gini = 0.0</text>
<text text-anchor="middle" x="166.5" y="-22.8" font-family="Helvetica,sans-Serif" font-size="14.00" fill="#000000">samples = 3</text>
<text text-anchor="middle" x="166.5" y="-7.8" font-family="Helvetica,sans-Serif" font-size="14.00" fill="#000000">value = [3, 0]</text>
</g>
<!-- 10&#45;&gt;12 -->
<g id="edge12" class="edge">
<title>10&#45;&gt;12</title>
<path fill="none" stroke="#000000" d="M163.2628,-88.9777C163.6946,-80.6449 164.1585,-71.6903 164.5966,-63.2364"/>
<polygon fill="#000000" stroke="#000000" points="168.0918,-63.4162 165.1141,-53.2485 161.1012,-63.0539 168.0918,-63.4162"/>
</g>
<!-- 14 -->
<g id="node15" class="node">
<title>14</title>
<polygon fill="none" stroke="#000000" points="341,-53 242,-53 242,0 341,0 341,-53"/>
<text text-anchor="middle" x="291.5" y="-37.8" font-family="Helvetica,sans-Serif" font-size="14.00" fill="#000000">gini = 0.0</text>
<text text-anchor="middle" x="291.5" y="-22.8" font-family="Helvetica,sans-Serif" font-size="14.00" fill="#000000">samples = 1</text>
<text text-anchor="middle" x="291.5" y="-7.8" font-family="Helvetica,sans-Serif" font-size="14.00" fill="#000000">value = [1, 0]</text>
</g>
<!-- 13&#45;&gt;14 -->
<g id="edge14" class="edge">
<title>13&#45;&gt;14</title>
<path fill="none" stroke="#000000" d="M294.0897,-88.9777C293.7481,-80.7364 293.3813,-71.887 293.0343,-63.5153"/>
<polygon fill="#000000" stroke="#000000" points="296.52,-63.0949 292.6087,-53.2485 289.526,-63.3849 296.52,-63.0949"/>
</g>
<!-- 15 -->
<g id="node16" class="node">
<title>15</title>
<polygon fill="none" stroke="#000000" points="458,-53 359,-53 359,0 458,0 458,-53"/>
<text text-anchor="middle" x="408.5" y="-37.8" font-family="Helvetica,sans-Serif" font-size="14.00" fill="#000000">gini = 0.0</text>
<text text-anchor="middle" x="408.5" y="-22.8" font-family="Helvetica,sans-Serif" font-size="14.00" fill="#000000">samples = 5</text>
<text text-anchor="middle" x="408.5" y="-7.8" font-family="Helvetica,sans-Serif" font-size="14.00" fill="#000000">value = [0, 5]</text>
</g>
<!-- 13&#45;&gt;15 -->
<g id="edge15" class="edge">
<title>13&#45;&gt;15</title>
<path fill="none" stroke="#000000" d="M335.3396,-88.9777C346.3839,-79.546 358.361,-69.3178 369.3648,-59.9208"/>
<polygon fill="#000000" stroke="#000000" points="371.8464,-62.4041 377.1779,-53.2485 367.3006,-57.081 371.8464,-62.4041"/>
</g>
<!-- 17 -->
<g id="node18" class="node">
<title>17</title>
<polygon fill="none" stroke="#000000" points="483,-573 380,-573 380,-505 483,-505 483,-573"/>
<text text-anchor="middle" x="431.5" y="-557.8" font-family="Helvetica,sans-Serif" font-size="14.00" fill="#000000">X[1] &lt;= 8.069</text>
<text text-anchor="middle" x="431.5" y="-542.8" font-family="Helvetica,sans-Serif" font-size="14.00" fill="#000000">gini = 0.375</text>
<text text-anchor="middle" x="431.5" y="-527.8" font-family="Helvetica,sans-Serif" font-size="14.00" fill="#000000">samples = 4</text>
<text text-anchor="middle" x="431.5" y="-512.8" font-family="Helvetica,sans-Serif" font-size="14.00" fill="#000000">value = [3, 1]</text>
</g>
<!-- 16&#45;&gt;17 -->
<g id="edge17" class="edge">
<title>16&#45;&gt;17</title>
<path fill="none" stroke="#000000" d="M431.5,-608.9465C431.5,-600.776 431.5,-591.9318 431.5,-583.3697"/>
<polygon fill="#000000" stroke="#000000" points="435.0001,-583.13 431.5,-573.13 428.0001,-583.13 435.0001,-583.13"/>
</g>
<!-- 20 -->
<g id="node21" class="node">
<title>20</title>
<polygon fill="none" stroke="#000000" points="668.5,-573 552.5,-573 552.5,-505 668.5,-505 668.5,-573"/>
<text text-anchor="middle" x="610.5" y="-557.8" font-family="Helvetica,sans-Serif" font-size="14.00" fill="#000000">X[5] &lt;= &#45;20.818</text>
<text text-anchor="middle" x="610.5" y="-542.8" font-family="Helvetica,sans-Serif" font-size="14.00" fill="#000000">gini = 0.213</text>
<text text-anchor="middle" x="610.5" y="-527.8" font-family="Helvetica,sans-Serif" font-size="14.00" fill="#000000">samples = 33</text>
<text text-anchor="middle" x="610.5" y="-512.8" font-family="Helvetica,sans-Serif" font-size="14.00" fill="#000000">value = [4, 29]</text>
</g>
<!-- 16&#45;&gt;20 -->
<g id="edge20" class="edge">
<title>16&#45;&gt;20</title>
<path fill="none" stroke="#000000" d="M489.6162,-609.2342C506.7415,-599.2843 525.6221,-588.3145 543.2693,-578.0614"/>
<polygon fill="#000000" stroke="#000000" points="545.4811,-580.8243 552.3693,-572.7742 541.9645,-574.7717 545.4811,-580.8243"/>
</g>
<!-- 18 -->
<g id="node19" class="node">
<title>18</title>
<polygon fill="none" stroke="#000000" points="417,-461.5 318,-461.5 318,-408.5 417,-408.5 417,-461.5"/>
<text text-anchor="middle" x="367.5" y="-446.3" font-family="Helvetica,sans-Serif" font-size="14.00" fill="#000000">gini = 0.0</text>
<text text-anchor="middle" x="367.5" y="-431.3" font-family="Helvetica,sans-Serif" font-size="14.00" fill="#000000">samples = 3</text>
<text text-anchor="middle" x="367.5" y="-416.3" font-family="Helvetica,sans-Serif" font-size="14.00" fill="#000000">value = [3, 0]</text>
</g>
<!-- 17&#45;&gt;18 -->
<g id="edge18" class="edge">
<title>17&#45;&gt;18</title>
<path fill="none" stroke="#000000" d="M410.544,-504.9465C403.6978,-493.8215 396.0829,-481.4473 389.1843,-470.237"/>
<polygon fill="#000000" stroke="#000000" points="392.0555,-468.2244 383.8336,-461.5422 386.0939,-471.8931 392.0555,-468.2244"/>
</g>
<!-- 19 -->
<g id="node20" class="node">
<title>19</title>
<polygon fill="none" stroke="#000000" points="534,-461.5 435,-461.5 435,-408.5 534,-408.5 534,-461.5"/>
<text text-anchor="middle" x="484.5" y="-446.3" font-family="Helvetica,sans-Serif" font-size="14.00" fill="#000000">gini = 0.0</text>
<text text-anchor="middle" x="484.5" y="-431.3" font-family="Helvetica,sans-Serif" font-size="14.00" fill="#000000">samples = 1</text>
<text text-anchor="middle" x="484.5" y="-416.3" font-family="Helvetica,sans-Serif" font-size="14.00" fill="#000000">value = [0, 1]</text>
</g>
<!-- 17&#45;&gt;19 -->
<g id="edge19" class="edge">
<title>17&#45;&gt;19</title>
<path fill="none" stroke="#000000" d="M448.8542,-504.9465C454.4675,-493.9316 460.705,-481.6922 466.3728,-470.5703"/>
<polygon fill="#000000" stroke="#000000" points="469.5515,-472.0411 470.9737,-461.5422 463.3147,-468.8627 469.5515,-472.0411"/>
</g>
<!-- 21 -->
<g id="node22" class="node">
<title>21</title>
<polygon fill="none" stroke="#000000" points="668.5,-469 552.5,-469 552.5,-401 668.5,-401 668.5,-469"/>
<text text-anchor="middle" x="610.5" y="-453.8" font-family="Helvetica,sans-Serif" font-size="14.00" fill="#000000">X[5] &lt;= &#45;22.125</text>
<text text-anchor="middle" x="610.5" y="-438.8" font-family="Helvetica,sans-Serif" font-size="14.00" fill="#000000">gini = 0.444</text>
<text text-anchor="middle" x="610.5" y="-423.8" font-family="Helvetica,sans-Serif" font-size="14.00" fill="#000000">samples = 9</text>
<text text-anchor="middle" x="610.5" y="-408.8" font-family="Helvetica,sans-Serif" font-size="14.00" fill="#000000">value = [3, 6]</text>
</g>
<!-- 20&#45;&gt;21 -->
<g id="edge21" class="edge">
<title>20&#45;&gt;21</title>
<path fill="none" stroke="#000000" d="M610.5,-504.9465C610.5,-496.776 610.5,-487.9318 610.5,-479.3697"/>
<polygon fill="#000000" stroke="#000000" points="614.0001,-479.13 610.5,-469.13 607.0001,-479.13 614.0001,-479.13"/>
</g>
<!-- 28 -->
<g id="node29" class="node">
<title>28</title>
<polygon fill="none" stroke="#000000" points="794,-469 687,-469 687,-401 794,-401 794,-469"/>
<text text-anchor="middle" x="740.5" y="-453.8" font-family="Helvetica,sans-Serif" font-size="14.00" fill="#000000">X[5] &lt;= &#45;2.337</text>
<text text-anchor="middle" x="740.5" y="-438.8" font-family="Helvetica,sans-Serif" font-size="14.00" fill="#000000">gini = 0.08</text>
<text text-anchor="middle" x="740.5" y="-423.8" font-family="Helvetica,sans-Serif" font-size="14.00" fill="#000000">samples = 24</text>
<text text-anchor="middle" x="740.5" y="-408.8" font-family="Helvetica,sans-Serif" font-size="14.00" fill="#000000">value = [1, 23]</text>
</g>
<!-- 20&#45;&gt;28 -->
<g id="edge28" class="edge">
<title>20&#45;&gt;28</title>
<path fill="none" stroke="#000000" d="M653.0669,-504.9465C664.8512,-495.519 677.7568,-485.1946 689.9481,-475.4415"/>
<polygon fill="#000000" stroke="#000000" points="692.2152,-478.11 697.8375,-469.13 687.8423,-472.6439 692.2152,-478.11"/>
</g>
<!-- 22 -->
<g id="node23" class="node">
<title>22</title>
<polygon fill="none" stroke="#000000" points="544.5,-365 428.5,-365 428.5,-297 544.5,-297 544.5,-365"/>
<text text-anchor="middle" x="486.5" y="-349.8" font-family="Helvetica,sans-Serif" font-size="14.00" fill="#000000">X[5] &lt;= &#45;28.428</text>
<text text-anchor="middle" x="486.5" y="-334.8" font-family="Helvetica,sans-Serif" font-size="14.00" fill="#000000">gini = 0.245</text>
<text text-anchor="middle" x="486.5" y="-319.8" font-family="Helvetica,sans-Serif" font-size="14.00" fill="#000000">samples = 7</text>
<text text-anchor="middle" x="486.5" y="-304.8" font-family="Helvetica,sans-Serif" font-size="14.00" fill="#000000">value = [1, 6]</text>
</g>
<!-- 21&#45;&gt;22 -->
<g id="edge22" class="edge">
<title>21&#45;&gt;22</title>
<path fill="none" stroke="#000000" d="M569.8978,-400.9465C558.7644,-391.6088 546.5817,-381.3911 535.0511,-371.7203"/>
<polygon fill="#000000" stroke="#000000" points="537.1046,-368.8745 527.1935,-365.13 532.6062,-374.2378 537.1046,-368.8745"/>
</g>
<!-- 27 -->
<g id="node28" class="node">
<title>27</title>
<polygon fill="none" stroke="#000000" points="662,-357.5 563,-357.5 563,-304.5 662,-304.5 662,-357.5"/>
<text text-anchor="middle" x="612.5" y="-342.3" font-family="Helvetica,sans-Serif" font-size="14.00" fill="#000000">gini = 0.0</text>
<text text-anchor="middle" x="612.5" y="-327.3" font-family="Helvetica,sans-Serif" font-size="14.00" fill="#000000">samples = 2</text>
<text text-anchor="middle" x="612.5" y="-312.3" font-family="Helvetica,sans-Serif" font-size="14.00" fill="#000000">value = [2, 0]</text>
</g>
<!-- 21&#45;&gt;27 -->
<g id="edge27" class="edge">
<title>21&#45;&gt;27</title>
<path fill="none" stroke="#000000" d="M611.1549,-400.9465C611.3603,-390.2621 611.588,-378.4254 611.7966,-367.5742"/>
<polygon fill="#000000" stroke="#000000" points="615.2966,-367.6076 611.9896,-357.5422 608.2979,-367.473 615.2966,-367.6076"/>
</g>
<!-- 23 -->
<g id="node24" class="node">
<title>23</title>
<polygon fill="none" stroke="#000000" points="539,-261 428,-261 428,-193 539,-193 539,-261"/>
<text text-anchor="middle" x="483.5" y="-245.8" font-family="Helvetica,sans-Serif" font-size="14.00" fill="#000000">X[3] &lt;= 36.101</text>
<text text-anchor="middle" x="483.5" y="-230.8" font-family="Helvetica,sans-Serif" font-size="14.00" fill="#000000">gini = 0.5</text>
<text text-anchor="middle" x="483.5" y="-215.8" font-family="Helvetica,sans-Serif" font-size="14.00" fill="#000000">samples = 2</text>
<text text-anchor="middle" x="483.5" y="-200.8" font-family="Helvetica,sans-Serif" font-size="14.00" fill="#000000">value = [1, 1]</text>
</g>
<!-- 22&#45;&gt;23 -->
<g id="edge23" class="edge">
<title>22&#45;&gt;23</title>
<path fill="none" stroke="#000000" d="M485.5177,-296.9465C485.282,-288.776 485.0269,-279.9318 484.7799,-271.3697"/>
<polygon fill="#000000" stroke="#000000" points="488.2715,-271.0249 484.4845,-261.13 481.2744,-271.2268 488.2715,-271.0249"/>
</g>
<!-- 26 -->
<g id="node27" class="node">
<title>26</title>
<polygon fill="none" stroke="#000000" points="656,-253.5 557,-253.5 557,-200.5 656,-200.5 656,-253.5"/>
<text text-anchor="middle" x="606.5" y="-238.3" font-family="Helvetica,sans-Serif" font-size="14.00" fill="#000000">gini = 0.0</text>
<text text-anchor="middle" x="606.5" y="-223.3" font-family="Helvetica,sans-Serif" font-size="14.00" fill="#000000">samples = 5</text>
<text text-anchor="middle" x="606.5" y="-208.3" font-family="Helvetica,sans-Serif" font-size="14.00" fill="#000000">value = [0, 5]</text>
</g>
<!-- 22&#45;&gt;26 -->
<g id="edge26" class="edge">
<title>22&#45;&gt;26</title>
<path fill="none" stroke="#000000" d="M525.7925,-296.9465C539.3917,-285.1606 554.6085,-271.9726 568.1324,-260.2519"/>
<polygon fill="#000000" stroke="#000000" points="570.6098,-262.7364 575.8744,-253.5422 566.0252,-257.4466 570.6098,-262.7364"/>
</g>
<!-- 24 -->
<g id="node25" class="node">
<title>24</title>
<polygon fill="none" stroke="#000000" points="527,-149.5 428,-149.5 428,-96.5 527,-96.5 527,-149.5"/>
<text text-anchor="middle" x="477.5" y="-134.3" font-family="Helvetica,sans-Serif" font-size="14.00" fill="#000000">gini = 0.0</text>
<text text-anchor="middle" x="477.5" y="-119.3" font-family="Helvetica,sans-Serif" font-size="14.00" fill="#000000">samples = 1</text>
<text text-anchor="middle" x="477.5" y="-104.3" font-family="Helvetica,sans-Serif" font-size="14.00" fill="#000000">value = [1, 0]</text>
</g>
<!-- 23&#45;&gt;24 -->
<g id="edge24" class="edge">
<title>23&#45;&gt;24</title>
<path fill="none" stroke="#000000" d="M481.5354,-192.9465C480.919,-182.2621 480.2361,-170.4254 479.6101,-159.5742"/>
<polygon fill="#000000" stroke="#000000" points="483.1015,-159.3239 479.0313,-149.5422 476.1131,-159.7272 483.1015,-159.3239"/>
</g>
<!-- 25 -->
<g id="node26" class="node">
<title>25</title>
<polygon fill="none" stroke="#000000" points="644,-149.5 545,-149.5 545,-96.5 644,-96.5 644,-149.5"/>
<text text-anchor="middle" x="594.5" y="-134.3" font-family="Helvetica,sans-Serif" font-size="14.00" fill="#000000">gini = 0.0</text>
<text text-anchor="middle" x="594.5" y="-119.3" font-family="Helvetica,sans-Serif" font-size="14.00" fill="#000000">samples = 1</text>
<text text-anchor="middle" x="594.5" y="-104.3" font-family="Helvetica,sans-Serif" font-size="14.00" fill="#000000">value = [0, 1]</text>
</g>
<!-- 23&#45;&gt;25 -->
<g id="edge25" class="edge">
<title>23&#45;&gt;25</title>
<path fill="none" stroke="#000000" d="M519.8456,-192.9465C532.3072,-181.2707 546.2374,-168.219 558.6588,-156.5809"/>
<polygon fill="#000000" stroke="#000000" points="561.2669,-158.9335 566.1713,-149.5422 556.4809,-153.8253 561.2669,-158.9335"/>
</g>
<!-- 29 -->
<g id="node30" class="node">
<title>29</title>
<polygon fill="none" stroke="#000000" points="791,-357.5 684,-357.5 684,-304.5 791,-304.5 791,-357.5"/>
<text text-anchor="middle" x="737.5" y="-342.3" font-family="Helvetica,sans-Serif" font-size="14.00" fill="#000000">gini = 0.0</text>
<text text-anchor="middle" x="737.5" y="-327.3" font-family="Helvetica,sans-Serif" font-size="14.00" fill="#000000">samples = 19</text>
<text text-anchor="middle" x="737.5" y="-312.3" font-family="Helvetica,sans-Serif" font-size="14.00" fill="#000000">value = [0, 19]</text>
</g>
<!-- 28&#45;&gt;29 -->
<g id="edge29" class="edge">
<title>28&#45;&gt;29</title>
<path fill="none" stroke="#000000" d="M739.5177,-400.9465C739.2095,-390.2621 738.868,-378.4254 738.555,-367.5742"/>
<polygon fill="#000000" stroke="#000000" points="742.0526,-367.4371 738.2656,-357.5422 735.0555,-367.639 742.0526,-367.4371"/>
</g>
<!-- 30 -->
<g id="node31" class="node">
<title>30</title>
<polygon fill="none" stroke="#000000" points="925.5,-365 809.5,-365 809.5,-297 925.5,-297 925.5,-365"/>
<text text-anchor="middle" x="867.5" y="-349.8" font-family="Helvetica,sans-Serif" font-size="14.00" fill="#000000">X[4] &lt;= &#45;47.089</text>
<text text-anchor="middle" x="867.5" y="-334.8" font-family="Helvetica,sans-Serif" font-size="14.00" fill="#000000">gini = 0.32</text>
<text text-anchor="middle" x="867.5" y="-319.8" font-family="Helvetica,sans-Serif" font-size="14.00" fill="#000000">samples = 5</text>
<text text-anchor="middle" x="867.5" y="-304.8" font-family="Helvetica,sans-Serif" font-size="14.00" fill="#000000">value = [1, 4]</text>
</g>
<!-- 28&#45;&gt;30 -->
<g id="edge30" class="edge">
<title>28&#45;&gt;30</title>
<path fill="none" stroke="#000000" d="M782.0845,-400.9465C793.4873,-391.6088 805.9647,-381.3911 817.7743,-371.7203"/>
<polygon fill="#000000" stroke="#000000" points="820.3026,-374.1736 825.822,-365.13 815.8676,-368.7578 820.3026,-374.1736"/>
</g>
<!-- 31 -->
<g id="node32" class="node">
<title>31</title>
<polygon fill="none" stroke="#000000" points="858,-253.5 759,-253.5 759,-200.5 858,-200.5 858,-253.5"/>
<text text-anchor="middle" x="808.5" y="-238.3" font-family="Helvetica,sans-Serif" font-size="14.00" fill="#000000">gini = 0.0</text>
<text text-anchor="middle" x="808.5" y="-223.3" font-family="Helvetica,sans-Serif" font-size="14.00" fill="#000000">samples = 1</text>
<text text-anchor="middle" x="808.5" y="-208.3" font-family="Helvetica,sans-Serif" font-size="14.00" fill="#000000">value = [1, 0]</text>
</g>
<!-- 30&#45;&gt;31 -->
<g id="edge31" class="edge">
<title>30&#45;&gt;31</title>
<path fill="none" stroke="#000000" d="M848.1812,-296.9465C841.9324,-285.9316 834.9888,-273.6922 828.6793,-262.5703"/>
<polygon fill="#000000" stroke="#000000" points="831.5362,-260.513 823.5576,-253.5422 825.4477,-263.967 831.5362,-260.513"/>
</g>
<!-- 32 -->
<g id="node33" class="node">
<title>32</title>
<polygon fill="none" stroke="#000000" points="975,-253.5 876,-253.5 876,-200.5 975,-200.5 975,-253.5"/>
<text text-anchor="middle" x="925.5" y="-238.3" font-family="Helvetica,sans-Serif" font-size="14.00" fill="#000000">gini = 0.0</text>
<text text-anchor="middle" x="925.5" y="-223.3" font-family="Helvetica,sans-Serif" font-size="14.00" fill="#000000">samples = 4</text>
<text text-anchor="middle" x="925.5" y="-208.3" font-family="Helvetica,sans-Serif" font-size="14.00" fill="#000000">value = [0, 4]</text>
</g>
<!-- 30&#45;&gt;32 -->
<g id="edge32" class="edge">
<title>30&#45;&gt;32</title>
<path fill="none" stroke="#000000" d="M886.4914,-296.9465C892.6343,-285.9316 899.4601,-273.6922 905.6627,-262.5703"/>
<polygon fill="#000000" stroke="#000000" points="908.8837,-263.9806 910.6976,-253.5422 902.7701,-260.5711 908.8837,-263.9806"/>
</g>
</g>
</svg>
