<?xml version="1.0" encoding="UTF-8" standalone="no"?>
<!DOCTYPE svg PUBLIC "-//W3C//DTD SVG 1.1//EN"
 "http://www.w3.org/Graphics/SVG/1.1/DTD/svg11.dtd">
<!-- Generated by graphviz version 2.40.1 (20161225.0304)
 -->
<!-- Title: Tree Pages: 1 -->
<svg width="1207pt" height="893pt"
 viewBox="0.00 0.00 1207.00 893.00" xmlns="http://www.w3.org/2000/svg" xmlns:xlink="http://www.w3.org/1999/xlink">
<g id="graph0" class="graph" transform="scale(1 1) rotate(0) translate(4 889)">
<title>Tree</title>
<polygon fill="#ffffff" stroke="transparent" points="-4,4 -4,-889 1203,-889 1203,4 -4,4"/>
<!-- 0 -->
<g id="node1" class="node">
<title>0</title>
<polygon fill="none" stroke="#000000" points="760.5,-885 644.5,-885 644.5,-817 760.5,-817 760.5,-885"/>
<text text-anchor="middle" x="702.5" y="-869.8" font-family="Helvetica,sans-Serif" font-size="14.00" fill="#000000">X[0] &lt;= 91.5</text>
<text text-anchor="middle" x="702.5" y="-854.8" font-family="Helvetica,sans-Serif" font-size="14.00" fill="#000000">gini = 0.491</text>
<text text-anchor="middle" x="702.5" y="-839.8" font-family="Helvetica,sans-Serif" font-size="14.00" fill="#000000">samples = 81</text>
<text text-anchor="middle" x="702.5" y="-824.8" font-family="Helvetica,sans-Serif" font-size="14.00" fill="#000000">value = [35, 46]</text>
</g>
<!-- 1 -->
<g id="node2" class="node">
<title>1</title>
<polygon fill="none" stroke="#000000" points="691,-781 584,-781 584,-713 691,-713 691,-781"/>
<text text-anchor="middle" x="637.5" y="-765.8" font-family="Helvetica,sans-Serif" font-size="14.00" fill="#000000">X[5] &lt;= &#45;5.909</text>
<text text-anchor="middle" x="637.5" y="-750.8" font-family="Helvetica,sans-Serif" font-size="14.00" fill="#000000">gini = 0.383</text>
<text text-anchor="middle" x="637.5" y="-735.8" font-family="Helvetica,sans-Serif" font-size="14.00" fill="#000000">samples = 31</text>
<text text-anchor="middle" x="637.5" y="-720.8" font-family="Helvetica,sans-Serif" font-size="14.00" fill="#000000">value = [23, 8]</text>
</g>
<!-- 0&#45;&gt;1 -->
<g id="edge1" class="edge">
<title>0&#45;&gt;1</title>
<path fill="none" stroke="#000000" d="M681.2166,-816.9465C675.7733,-808.2373 669.8516,-798.7626 664.175,-789.6801"/>
<polygon fill="#000000" stroke="#000000" points="667.0993,-787.755 658.8312,-781.13 661.1633,-791.465 667.0993,-787.755"/>
<text text-anchor="middle" x="653.2098" y="-801.7898" font-family="Helvetica,sans-Serif" font-size="14.00" fill="#000000">True</text>
</g>
<!-- 18 -->
<g id="node19" class="node">
<title>18</title>
<polygon fill="none" stroke="#000000" points="825.5,-781 709.5,-781 709.5,-713 825.5,-713 825.5,-781"/>
<text text-anchor="middle" x="767.5" y="-765.8" font-family="Helvetica,sans-Serif" font-size="14.00" fill="#000000">X[4] &lt;= &#45;61.865</text>
<text text-anchor="middle" x="767.5" y="-750.8" font-family="Helvetica,sans-Serif" font-size="14.00" fill="#000000">gini = 0.365</text>
<text text-anchor="middle" x="767.5" y="-735.8" font-family="Helvetica,sans-Serif" font-size="14.00" fill="#000000">samples = 50</text>
<text text-anchor="middle" x="767.5" y="-720.8" font-family="Helvetica,sans-Serif" font-size="14.00" fill="#000000">value = [12, 38]</text>
</g>
<!-- 0&#45;&gt;18 -->
<g id="edge18" class="edge">
<title>0&#45;&gt;18</title>
<path fill="none" stroke="#000000" d="M723.7834,-816.9465C729.2267,-808.2373 735.1484,-798.7626 740.825,-789.6801"/>
<polygon fill="#000000" stroke="#000000" points="743.8367,-791.465 746.1688,-781.13 737.9007,-787.755 743.8367,-791.465"/>
<text text-anchor="middle" x="751.7902" y="-801.7898" font-family="Helvetica,sans-Serif" font-size="14.00" fill="#000000">False</text>
</g>
<!-- 2 -->
<g id="node3" class="node">
<title>2</title>
<polygon fill="none" stroke="#000000" points="572.5,-677 456.5,-677 456.5,-609 572.5,-609 572.5,-677"/>
<text text-anchor="middle" x="514.5" y="-661.8" font-family="Helvetica,sans-Serif" font-size="14.00" fill="#000000">X[4] &lt;= &#45;39.264</text>
<text text-anchor="middle" x="514.5" y="-646.8" font-family="Helvetica,sans-Serif" font-size="14.00" fill="#000000">gini = 0.328</text>
<text text-anchor="middle" x="514.5" y="-631.8" font-family="Helvetica,sans-Serif" font-size="14.00" fill="#000000">samples = 29</text>
<text text-anchor="middle" x="514.5" y="-616.8" font-family="Helvetica,sans-Serif" font-size="14.00" fill="#000000">value = [23, 6]</text>
</g>
<!-- 1&#45;&gt;2 -->
<g id="edge2" class="edge">
<title>1&#45;&gt;2</title>
<path fill="none" stroke="#000000" d="M597.2252,-712.9465C586.1816,-703.6088 574.0972,-693.3911 562.6596,-683.7203"/>
<polygon fill="#000000" stroke="#000000" points="564.7614,-680.914 554.8653,-677.13 560.2417,-686.2594 564.7614,-680.914"/>
</g>
<!-- 17 -->
<g id="node18" class="node">
<title>17</title>
<polygon fill="none" stroke="#000000" points="690,-669.5 591,-669.5 591,-616.5 690,-616.5 690,-669.5"/>
<text text-anchor="middle" x="640.5" y="-654.3" font-family="Helvetica,sans-Serif" font-size="14.00" fill="#000000">gini = 0.0</text>
<text text-anchor="middle" x="640.5" y="-639.3" font-family="Helvetica,sans-Serif" font-size="14.00" fill="#000000">samples = 2</text>
<text text-anchor="middle" x="640.5" y="-624.3" font-family="Helvetica,sans-Serif" font-size="14.00" fill="#000000">value = [0, 2]</text>
</g>
<!-- 1&#45;&gt;17 -->
<g id="edge17" class="edge">
<title>1&#45;&gt;17</title>
<path fill="none" stroke="#000000" d="M638.4823,-712.9465C638.7905,-702.2621 639.132,-690.4254 639.445,-679.5742"/>
<polygon fill="#000000" stroke="#000000" points="642.9445,-679.639 639.7344,-669.5422 635.9474,-679.4371 642.9445,-679.639"/>
</g>
<!-- 3 -->
<g id="node4" class="node">
<title>3</title>
<polygon fill="none" stroke="#000000" points="449.5,-573 333.5,-573 333.5,-505 449.5,-505 449.5,-573"/>
<text text-anchor="middle" x="391.5" y="-557.8" font-family="Helvetica,sans-Serif" font-size="14.00" fill="#000000">X[4] &lt;= &#45;61.116</text>
<text text-anchor="middle" x="391.5" y="-542.8" font-family="Helvetica,sans-Serif" font-size="14.00" fill="#000000">gini = 0.444</text>
<text text-anchor="middle" x="391.5" y="-527.8" font-family="Helvetica,sans-Serif" font-size="14.00" fill="#000000">samples = 18</text>
<text text-anchor="middle" x="391.5" y="-512.8" font-family="Helvetica,sans-Serif" font-size="14.00" fill="#000000">value = [12, 6]</text>
</g>
<!-- 2&#45;&gt;3 -->
<g id="edge3" class="edge">
<title>2&#45;&gt;3</title>
<path fill="none" stroke="#000000" d="M474.2252,-608.9465C463.1816,-599.6088 451.0972,-589.3911 439.6596,-579.7203"/>
<polygon fill="#000000" stroke="#000000" points="441.7614,-576.914 431.8653,-573.13 437.2417,-582.2594 441.7614,-576.914"/>
</g>
<!-- 16 -->
<g id="node17" class="node">
<title>16</title>
<polygon fill="none" stroke="#000000" points="575,-565.5 468,-565.5 468,-512.5 575,-512.5 575,-565.5"/>
<text text-anchor="middle" x="521.5" y="-550.3" font-family="Helvetica,sans-Serif" font-size="14.00" fill="#000000">gini = 0.0</text>
<text text-anchor="middle" x="521.5" y="-535.3" font-family="Helvetica,sans-Serif" font-size="14.00" fill="#000000">samples = 11</text>
<text text-anchor="middle" x="521.5" y="-520.3" font-family="Helvetica,sans-Serif" font-size="14.00" fill="#000000">value = [11, 0]</text>
</g>
<!-- 2&#45;&gt;16 -->
<g id="edge16" class="edge">
<title>2&#45;&gt;16</title>
<path fill="none" stroke="#000000" d="M516.7921,-608.9465C517.5112,-598.2621 518.3079,-586.4254 519.0383,-575.5742"/>
<polygon fill="#000000" stroke="#000000" points="522.534,-575.7547 519.7135,-565.5422 515.5498,-575.2845 522.534,-575.7547"/>
</g>
<!-- 4 -->
<g id="node5" class="node">
<title>4</title>
<polygon fill="none" stroke="#000000" points="321,-461.5 222,-461.5 222,-408.5 321,-408.5 321,-461.5"/>
<text text-anchor="middle" x="271.5" y="-446.3" font-family="Helvetica,sans-Serif" font-size="14.00" fill="#000000">gini = 0.0</text>
<text text-anchor="middle" x="271.5" y="-431.3" font-family="Helvetica,sans-Serif" font-size="14.00" fill="#000000">samples = 7</text>
<text text-anchor="middle" x="271.5" y="-416.3" font-family="Helvetica,sans-Serif" font-size="14.00" fill="#000000">value = [7, 0]</text>
</g>
<!-- 3&#45;&gt;4 -->
<g id="edge4" class="edge">
<title>3&#45;&gt;4</title>
<path fill="none" stroke="#000000" d="M352.2075,-504.9465C338.6083,-493.1606 323.3915,-479.9726 309.8676,-468.2519"/>
<polygon fill="#000000" stroke="#000000" points="311.9748,-465.4466 302.1256,-461.5422 307.3902,-470.7364 311.9748,-465.4466"/>
</g>
<!-- 5 -->
<g id="node6" class="node">
<title>5</title>
<polygon fill="none" stroke="#000000" points="450,-469 339,-469 339,-401 450,-401 450,-469"/>
<text text-anchor="middle" x="394.5" y="-453.8" font-family="Helvetica,sans-Serif" font-size="14.00" fill="#000000">X[3] &lt;= 30.612</text>
<text text-anchor="middle" x="394.5" y="-438.8" font-family="Helvetica,sans-Serif" font-size="14.00" fill="#000000">gini = 0.496</text>
<text text-anchor="middle" x="394.5" y="-423.8" font-family="Helvetica,sans-Serif" font-size="14.00" fill="#000000">samples = 11</text>
<text text-anchor="middle" x="394.5" y="-408.8" font-family="Helvetica,sans-Serif" font-size="14.00" fill="#000000">value = [5, 6]</text>
</g>
<!-- 3&#45;&gt;5 -->
<g id="edge5" class="edge">
<title>3&#45;&gt;5</title>
<path fill="none" stroke="#000000" d="M392.4823,-504.9465C392.718,-496.776 392.9731,-487.9318 393.2201,-479.3697"/>
<polygon fill="#000000" stroke="#000000" points="396.7256,-479.2268 393.5155,-469.13 389.7285,-479.0249 396.7256,-479.2268"/>
</g>
<!-- 6 -->
<g id="node7" class="node">
<title>6</title>
<polygon fill="none" stroke="#000000" points="332,-365 233,-365 233,-297 332,-297 332,-365"/>
<text text-anchor="middle" x="282.5" y="-349.8" font-family="Helvetica,sans-Serif" font-size="14.00" fill="#000000">X[5] &lt;= &#45;19.6</text>
<text text-anchor="middle" x="282.5" y="-334.8" font-family="Helvetica,sans-Serif" font-size="14.00" fill="#000000">gini = 0.444</text>
<text text-anchor="middle" x="282.5" y="-319.8" font-family="Helvetica,sans-Serif" font-size="14.00" fill="#000000">samples = 9</text>
<text text-anchor="middle" x="282.5" y="-304.8" font-family="Helvetica,sans-Serif" font-size="14.00" fill="#000000">value = [3, 6]</text>
</g>
<!-- 5&#45;&gt;6 -->
<g id="edge6" class="edge">
<title>5&#45;&gt;6</title>
<path fill="none" stroke="#000000" d="M357.827,-400.9465C347.8677,-391.6986 336.9789,-381.5876 326.6532,-371.9994"/>
<polygon fill="#000000" stroke="#000000" points="328.9649,-369.3698 319.2554,-365.13 324.2018,-374.4993 328.9649,-369.3698"/>
</g>
<!-- 15 -->
<g id="node16" class="node">
<title>15</title>
<polygon fill="none" stroke="#000000" points="449,-357.5 350,-357.5 350,-304.5 449,-304.5 449,-357.5"/>
<text text-anchor="middle" x="399.5" y="-342.3" font-family="Helvetica,sans-Serif" font-size="14.00" fill="#000000">gini = 0.0</text>
<text text-anchor="middle" x="399.5" y="-327.3" font-family="Helvetica,sans-Serif" font-size="14.00" fill="#000000">samples = 2</text>
<text text-anchor="middle" x="399.5" y="-312.3" font-family="Helvetica,sans-Serif" font-size="14.00" fill="#000000">value = [2, 0]</text>
</g>
<!-- 5&#45;&gt;15 -->
<g id="edge15" class="edge">
<title>5&#45;&gt;15</title>
<path fill="none" stroke="#000000" d="M396.1372,-400.9465C396.6509,-390.2621 397.2199,-378.4254 397.7416,-367.5742"/>
<polygon fill="#000000" stroke="#000000" points="401.2396,-367.6987 398.2239,-357.5422 394.2477,-367.3625 401.2396,-367.6987"/>
</g>
<!-- 7 -->
<g id="node8" class="node">
<title>7</title>
<polygon fill="none" stroke="#000000" points="274,-261 175,-261 175,-193 274,-193 274,-261"/>
<text text-anchor="middle" x="224.5" y="-245.8" font-family="Helvetica,sans-Serif" font-size="14.00" fill="#000000">X[0] &lt;= 81.5</text>
<text text-anchor="middle" x="224.5" y="-230.8" font-family="Helvetica,sans-Serif" font-size="14.00" fill="#000000">gini = 0.278</text>
<text text-anchor="middle" x="224.5" y="-215.8" font-family="Helvetica,sans-Serif" font-size="14.00" fill="#000000">samples = 6</text>
<text text-anchor="middle" x="224.5" y="-200.8" font-family="Helvetica,sans-Serif" font-size="14.00" fill="#000000">value = [1, 5]</text>
</g>
<!-- 6&#45;&gt;7 -->
<g id="edge7" class="edge">
<title>6&#45;&gt;7</title>
<path fill="none" stroke="#000000" d="M263.5086,-296.9465C258.7017,-288.3271 253.4765,-278.9579 248.4591,-269.9611"/>
<polygon fill="#000000" stroke="#000000" points="251.4615,-268.1589 243.534,-261.13 245.348,-271.5684 251.4615,-268.1589"/>
</g>
<!-- 12 -->
<g id="node13" class="node">
<title>12</title>
<polygon fill="none" stroke="#000000" points="391,-261 292,-261 292,-193 391,-193 391,-261"/>
<text text-anchor="middle" x="341.5" y="-245.8" font-family="Helvetica,sans-Serif" font-size="14.00" fill="#000000">X[2] &lt;= 70.5</text>
<text text-anchor="middle" x="341.5" y="-230.8" font-family="Helvetica,sans-Serif" font-size="14.00" fill="#000000">gini = 0.444</text>
<text text-anchor="middle" x="341.5" y="-215.8" font-family="Helvetica,sans-Serif" font-size="14.00" fill="#000000">samples = 3</text>
<text text-anchor="middle" x="341.5" y="-200.8" font-family="Helvetica,sans-Serif" font-size="14.00" fill="#000000">value = [2, 1]</text>
</g>
<!-- 6&#45;&gt;12 -->
<g id="edge12" class="edge">
<title>6&#45;&gt;12</title>
<path fill="none" stroke="#000000" d="M301.8188,-296.9465C306.7087,-288.3271 312.0239,-278.9579 317.1278,-269.9611"/>
<polygon fill="#000000" stroke="#000000" points="320.2476,-271.5549 322.1378,-261.13 314.1592,-268.1008 320.2476,-271.5549"/>
</g>
<!-- 8 -->
<g id="node9" class="node">
<title>8</title>
<polygon fill="none" stroke="#000000" points="157,-157 58,-157 58,-89 157,-89 157,-157"/>
<text text-anchor="middle" x="107.5" y="-141.8" font-family="Helvetica,sans-Serif" font-size="14.00" fill="#000000">X[0] &lt;= 73.5</text>
<text text-anchor="middle" x="107.5" y="-126.8" font-family="Helvetica,sans-Serif" font-size="14.00" fill="#000000">gini = 0.5</text>
<text text-anchor="middle" x="107.5" y="-111.8" font-family="Helvetica,sans-Serif" font-size="14.00" fill="#000000">samples = 2</text>
<text text-anchor="middle" x="107.5" y="-96.8" font-family="Helvetica,sans-Serif" font-size="14.00" fill="#000000">value = [1, 1]</text>
</g>
<!-- 7&#45;&gt;8 -->
<g id="edge8" class="edge">
<title>7&#45;&gt;8</title>
<path fill="none" stroke="#000000" d="M186.1898,-192.9465C175.7859,-183.6986 164.411,-173.5876 153.6243,-163.9994"/>
<polygon fill="#000000" stroke="#000000" points="155.6956,-161.1577 145.8962,-157.13 151.0451,-166.3896 155.6956,-161.1577"/>
</g>
<!-- 11 -->
<g id="node12" class="node">
<title>11</title>
<polygon fill="none" stroke="#000000" points="274,-149.5 175,-149.5 175,-96.5 274,-96.5 274,-149.5"/>
<text text-anchor="middle" x="224.5" y="-134.3" font-family="Helvetica,sans-Serif" font-size="14.00" fill="#000000">gini = 0.0</text>
<text text-anchor="middle" x="224.5" y="-119.3" font-family="Helvetica,sans-Serif" font-size="14.00" fill="#000000">samples = 4</text>
<text text-anchor="middle" x="224.5" y="-104.3" font-family="Helvetica,sans-Serif" font-size="14.00" fill="#000000">value = [0, 4]</text>
</g>
<!-- 7&#45;&gt;11 -->
<g id="edge11" class="edge">
<title>7&#45;&gt;11</title>
<path fill="none" stroke="#000000" d="M224.5,-192.9465C224.5,-182.2621 224.5,-170.4254 224.5,-159.5742"/>
<polygon fill="#000000" stroke="#000000" points="228.0001,-159.5421 224.5,-149.5422 221.0001,-159.5422 228.0001,-159.5421"/>
</g>
<!-- 9 -->
<g id="node10" class="node">
<title>9</title>
<polygon fill="none" stroke="#000000" points="99,-53 0,-53 0,0 99,0 99,-53"/>
<text text-anchor="middle" x="49.5" y="-37.8" font-family="Helvetica,sans-Serif" font-size="14.00" fill="#000000">gini = 0.0</text>
<text text-anchor="middle" x="49.5" y="-22.8" font-family="Helvetica,sans-Serif" font-size="14.00" fill="#000000">samples = 1</text>
<text text-anchor="middle" x="49.5" y="-7.8" font-family="Helvetica,sans-Serif" font-size="14.00" fill="#000000">value = [0, 1]</text>
</g>
<!-- 8&#45;&gt;9 -->
<g id="edge9" class="edge">
<title>8&#45;&gt;9</title>
<path fill="none" stroke="#000000" d="M87.0514,-88.9777C81.7678,-80.187 76.0684,-70.7044 70.7452,-61.8477"/>
<polygon fill="#000000" stroke="#000000" points="73.7282,-60.0165 65.5768,-53.2485 67.7285,-63.6225 73.7282,-60.0165"/>
</g>
<!-- 10 -->
<g id="node11" class="node">
<title>10</title>
<polygon fill="none" stroke="#000000" points="216,-53 117,-53 117,0 216,0 216,-53"/>
<text text-anchor="middle" x="166.5" y="-37.8" font-family="Helvetica,sans-Serif" font-size="14.00" fill="#000000">gini = 0.0</text>
<text text-anchor="middle" x="166.5" y="-22.8" font-family="Helvetica,sans-Serif" font-size="14.00" fill="#000000">samples = 1</text>
<text text-anchor="middle" x="166.5" y="-7.8" font-family="Helvetica,sans-Serif" font-size="14.00" fill="#000000">value = [1, 0]</text>
</g>
<!-- 8&#45;&gt;10 -->
<g id="edge10" class="edge">
<title>8&#45;&gt;10</title>
<path fill="none" stroke="#000000" d="M128.3012,-88.9777C133.6758,-80.187 139.4735,-70.7044 144.8885,-61.8477"/>
<polygon fill="#000000" stroke="#000000" points="147.9158,-63.6059 150.146,-53.2485 141.9436,-59.9545 147.9158,-63.6059"/>
</g>
<!-- 13 -->
<g id="node14" class="node">
<title>13</title>
<polygon fill="none" stroke="#000000" points="391,-149.5 292,-149.5 292,-96.5 391,-96.5 391,-149.5"/>
<text text-anchor="middle" x="341.5" y="-134.3" font-family="Helvetica,sans-Serif" font-size="14.00" fill="#000000">gini = 0.0</text>
<text text-anchor="middle" x="341.5" y="-119.3" font-family="Helvetica,sans-Serif" font-size="14.00" fill="#000000">samples = 2</text>
<text text-anchor="middle" x="341.5" y="-104.3" font-family="Helvetica,sans-Serif" font-size="14.00" fill="#000000">value = [2, 0]</text>
</g>
<!-- 12&#45;&gt;13 -->
<g id="edge13" class="edge">
<title>12&#45;&gt;13</title>
<path fill="none" stroke="#000000" d="M341.5,-192.9465C341.5,-182.2621 341.5,-170.4254 341.5,-159.5742"/>
<polygon fill="#000000" stroke="#000000" points="345.0001,-159.5421 341.5,-149.5422 338.0001,-159.5422 345.0001,-159.5421"/>
</g>
<!-- 14 -->
<g id="node15" class="node">
<title>14</title>
<polygon fill="none" stroke="#000000" points="508,-149.5 409,-149.5 409,-96.5 508,-96.5 508,-149.5"/>
<text text-anchor="middle" x="458.5" y="-134.3" font-family="Helvetica,sans-Serif" font-size="14.00" fill="#000000">gini = 0.0</text>
<text text-anchor="middle" x="458.5" y="-119.3" font-family="Helvetica,sans-Serif" font-size="14.00" fill="#000000">samples = 1</text>
<text text-anchor="middle" x="458.5" y="-104.3" font-family="Helvetica,sans-Serif" font-size="14.00" fill="#000000">value = [0, 1]</text>
</g>
<!-- 12&#45;&gt;14 -->
<g id="edge14" class="edge">
<title>12&#45;&gt;14</title>
<path fill="none" stroke="#000000" d="M379.8102,-192.9465C393.0694,-181.1606 407.9058,-167.9726 421.0916,-156.2519"/>
<polygon fill="#000000" stroke="#000000" points="423.4912,-158.8018 428.6401,-149.5422 418.8407,-153.5699 423.4912,-158.8018"/>
</g>
<!-- 19 -->
<g id="node20" class="node">
<title>19</title>
<polygon fill="none" stroke="#000000" points="817.5,-677 713.5,-677 713.5,-609 817.5,-609 817.5,-677"/>
<text text-anchor="middle" x="765.5" y="-661.8" font-family="Helvetica,sans-Serif" font-size="14.00" fill="#000000">X[0] &lt;= 98.5</text>
<text text-anchor="middle" x="765.5" y="-646.8" font-family="Helvetica,sans-Serif" font-size="14.00" fill="#000000">gini = 0.48</text>
<text text-anchor="middle" x="765.5" y="-631.8" font-family="Helvetica,sans-Serif" font-size="14.00" fill="#000000">samples = 15</text>
<text text-anchor="middle" x="765.5" y="-616.8" font-family="Helvetica,sans-Serif" font-size="14.00" fill="#000000">value = [9, 6]</text>
</g>
<!-- 18&#45;&gt;19 -->
<g id="edge19" class="edge">
<title>18&#45;&gt;19</title>
<path fill="none" stroke="#000000" d="M766.8451,-712.9465C766.688,-704.776 766.5179,-695.9318 766.3533,-687.3697"/>
<polygon fill="#000000" stroke="#000000" points="769.8481,-687.0608 766.1563,-677.13 762.8494,-687.1955 769.8481,-687.0608"/>
</g>
<!-- 30 -->
<g id="node31" class="node">
<title>30</title>
<polygon fill="none" stroke="#000000" points="1073.5,-677 957.5,-677 957.5,-609 1073.5,-609 1073.5,-677"/>
<text text-anchor="middle" x="1015.5" y="-661.8" font-family="Helvetica,sans-Serif" font-size="14.00" fill="#000000">X[4] &lt;= &#45;45.372</text>
<text text-anchor="middle" x="1015.5" y="-646.8" font-family="Helvetica,sans-Serif" font-size="14.00" fill="#000000">gini = 0.157</text>
<text text-anchor="middle" x="1015.5" y="-631.8" font-family="Helvetica,sans-Serif" font-size="14.00" fill="#000000">samples = 35</text>
<text text-anchor="middle" x="1015.5" y="-616.8" font-family="Helvetica,sans-Serif" font-size="14.00" fill="#000000">value = [3, 32]</text>
</g>
<!-- 18&#45;&gt;30 -->
<g id="edge30" class="edge">
<title>18&#45;&gt;30</title>
<path fill="none" stroke="#000000" d="M825.645,-722.6166C862.2039,-707.2854 909.5219,-687.4424 947.7728,-671.4017"/>
<polygon fill="#000000" stroke="#000000" points="949.4218,-674.5056 957.2902,-667.4106 946.7146,-668.0502 949.4218,-674.5056"/>
</g>
<!-- 20 -->
<g id="node21" class="node">
<title>20</title>
<polygon fill="none" stroke="#000000" points="698,-565.5 599,-565.5 599,-512.5 698,-512.5 698,-565.5"/>
<text text-anchor="middle" x="648.5" y="-550.3" font-family="Helvetica,sans-Serif" font-size="14.00" fill="#000000">gini = 0.0</text>
<text text-anchor="middle" x="648.5" y="-535.3" font-family="Helvetica,sans-Serif" font-size="14.00" fill="#000000">samples = 6</text>
<text text-anchor="middle" x="648.5" y="-520.3" font-family="Helvetica,sans-Serif" font-size="14.00" fill="#000000">value = [6, 0]</text>
</g>
<!-- 19&#45;&gt;20 -->
<g id="edge20" class="edge">
<title>19&#45;&gt;20</title>
<path fill="none" stroke="#000000" d="M727.1898,-608.9465C713.9306,-597.1606 699.0942,-583.9726 685.9084,-572.2519"/>
<polygon fill="#000000" stroke="#000000" points="688.1593,-569.5699 678.3599,-565.5422 683.5088,-574.8018 688.1593,-569.5699"/>
</g>
<!-- 21 -->
<g id="node22" class="node">
<title>21</title>
<polygon fill="none" stroke="#000000" points="815,-573 716,-573 716,-505 815,-505 815,-573"/>
<text text-anchor="middle" x="765.5" y="-557.8" font-family="Helvetica,sans-Serif" font-size="14.00" fill="#000000">X[2] &lt;= 71.5</text>
<text text-anchor="middle" x="765.5" y="-542.8" font-family="Helvetica,sans-Serif" font-size="14.00" fill="#000000">gini = 0.444</text>
<text text-anchor="middle" x="765.5" y="-527.8" font-family="Helvetica,sans-Serif" font-size="14.00" fill="#000000">samples = 9</text>
<text text-anchor="middle" x="765.5" y="-512.8" font-family="Helvetica,sans-Serif" font-size="14.00" fill="#000000">value = [3, 6]</text>
</g>
<!-- 19&#45;&gt;21 -->
<g id="edge21" class="edge">
<title>19&#45;&gt;21</title>
<path fill="none" stroke="#000000" d="M765.5,-608.9465C765.5,-600.776 765.5,-591.9318 765.5,-583.3697"/>
<polygon fill="#000000" stroke="#000000" points="769.0001,-583.13 765.5,-573.13 762.0001,-583.13 769.0001,-583.13"/>
</g>
<!-- 22 -->
<g id="node23" class="node">
<title>22</title>
<polygon fill="none" stroke="#000000" points="693,-469 582,-469 582,-401 693,-401 693,-469"/>
<text text-anchor="middle" x="637.5" y="-453.8" font-family="Helvetica,sans-Serif" font-size="14.00" fill="#000000">X[3] &lt;= 25.907</text>
<text text-anchor="middle" x="637.5" y="-438.8" font-family="Helvetica,sans-Serif" font-size="14.00" fill="#000000">gini = 0.444</text>
<text text-anchor="middle" x="637.5" y="-423.8" font-family="Helvetica,sans-Serif" font-size="14.00" fill="#000000">samples = 3</text>
<text text-anchor="middle" x="637.5" y="-408.8" font-family="Helvetica,sans-Serif" font-size="14.00" fill="#000000">value = [2, 1]</text>
</g>
<!-- 21&#45;&gt;22 -->
<g id="edge22" class="edge">
<title>21&#45;&gt;22</title>
<path fill="none" stroke="#000000" d="M723.588,-504.9465C711.985,-495.519 699.2779,-485.1946 687.2741,-475.4415"/>
<polygon fill="#000000" stroke="#000000" points="689.4744,-472.7196 679.5061,-469.13 685.0602,-478.1524 689.4744,-472.7196"/>
</g>
<!-- 25 -->
<g id="node26" class="node">
<title>25</title>
<polygon fill="none" stroke="#000000" points="817,-469 714,-469 714,-401 817,-401 817,-469"/>
<text text-anchor="middle" x="765.5" y="-453.8" font-family="Helvetica,sans-Serif" font-size="14.00" fill="#000000">X[3] &lt;= 25.49</text>
<text text-anchor="middle" x="765.5" y="-438.8" font-family="Helvetica,sans-Serif" font-size="14.00" fill="#000000">gini = 0.278</text>
<text text-anchor="middle" x="765.5" y="-423.8" font-family="Helvetica,sans-Serif" font-size="14.00" fill="#000000">samples = 6</text>
<text text-anchor="middle" x="765.5" y="-408.8" font-family="Helvetica,sans-Serif" font-size="14.00" fill="#000000">value = [1, 5]</text>
</g>
<!-- 21&#45;&gt;25 -->
<g id="edge25" class="edge">
<title>21&#45;&gt;25</title>
<path fill="none" stroke="#000000" d="M765.5,-504.9465C765.5,-496.776 765.5,-487.9318 765.5,-479.3697"/>
<polygon fill="#000000" stroke="#000000" points="769.0001,-479.13 765.5,-469.13 762.0001,-479.13 769.0001,-479.13"/>
</g>
<!-- 23 -->
<g id="node24" class="node">
<title>23</title>
<polygon fill="none" stroke="#000000" points="570,-357.5 471,-357.5 471,-304.5 570,-304.5 570,-357.5"/>
<text text-anchor="middle" x="520.5" y="-342.3" font-family="Helvetica,sans-Serif" font-size="14.00" fill="#000000">gini = 0.0</text>
<text text-anchor="middle" x="520.5" y="-327.3" font-family="Helvetica,sans-Serif" font-size="14.00" fill="#000000">samples = 1</text>
<text text-anchor="middle" x="520.5" y="-312.3" font-family="Helvetica,sans-Serif" font-size="14.00" fill="#000000">value = [0, 1]</text>
</g>
<!-- 22&#45;&gt;23 -->
<g id="edge23" class="edge">
<title>22&#45;&gt;23</title>
<path fill="none" stroke="#000000" d="M599.1898,-400.9465C585.9306,-389.1606 571.0942,-375.9726 557.9084,-364.2519"/>
<polygon fill="#000000" stroke="#000000" points="560.1593,-361.5699 550.3599,-357.5422 555.5088,-366.8018 560.1593,-361.5699"/>
</g>
<!-- 24 -->
<g id="node25" class="node">
<title>24</title>
<polygon fill="none" stroke="#000000" points="687,-357.5 588,-357.5 588,-304.5 687,-304.5 687,-357.5"/>
<text text-anchor="middle" x="637.5" y="-342.3" font-family="Helvetica,sans-Serif" font-size="14.00" fill="#000000">gini = 0.0</text>
<text text-anchor="middle" x="637.5" y="-327.3" font-family="Helvetica,sans-Serif" font-size="14.00" fill="#000000">samples = 2</text>
<text text-anchor="middle" x="637.5" y="-312.3" font-family="Helvetica,sans-Serif" font-size="14.00" fill="#000000">value = [2, 0]</text>
</g>
<!-- 22&#45;&gt;24 -->
<g id="edge24" class="edge">
<title>22&#45;&gt;24</title>
<path fill="none" stroke="#000000" d="M637.5,-400.9465C637.5,-390.2621 637.5,-378.4254 637.5,-367.5742"/>
<polygon fill="#000000" stroke="#000000" points="641.0001,-367.5421 637.5,-357.5422 634.0001,-367.5422 641.0001,-367.5421"/>
</g>
<!-- 26 -->
<g id="node27" class="node">
<title>26</title>
<polygon fill="none" stroke="#000000" points="821.5,-365 705.5,-365 705.5,-297 821.5,-297 821.5,-365"/>
<text text-anchor="middle" x="763.5" y="-349.8" font-family="Helvetica,sans-Serif" font-size="14.00" fill="#000000">X[5] &lt;= &#45;18.265</text>
<text text-anchor="middle" x="763.5" y="-334.8" font-family="Helvetica,sans-Serif" font-size="14.00" fill="#000000">gini = 0.5</text>
<text text-anchor="middle" x="763.5" y="-319.8" font-family="Helvetica,sans-Serif" font-size="14.00" fill="#000000">samples = 2</text>
<text text-anchor="middle" x="763.5" y="-304.8" font-family="Helvetica,sans-Serif" font-size="14.00" fill="#000000">value = [1, 1]</text>
</g>
<!-- 25&#45;&gt;26 -->
<g id="edge26" class="edge">
<title>25&#45;&gt;26</title>
<path fill="none" stroke="#000000" d="M764.8451,-400.9465C764.688,-392.776 764.5179,-383.9318 764.3533,-375.3697"/>
<polygon fill="#000000" stroke="#000000" points="767.8481,-375.0608 764.1563,-365.13 760.8494,-375.1955 767.8481,-375.0608"/>
</g>
<!-- 29 -->
<g id="node30" class="node">
<title>29</title>
<polygon fill="none" stroke="#000000" points="939,-357.5 840,-357.5 840,-304.5 939,-304.5 939,-357.5"/>
<text text-anchor="middle" x="889.5" y="-342.3" font-family="Helvetica,sans-Serif" font-size="14.00" fill="#000000">gini = 0.0</text>
<text text-anchor="middle" x="889.5" y="-327.3" font-family="Helvetica,sans-Serif" font-size="14.00" fill="#000000">samples = 4</text>
<text text-anchor="middle" x="889.5" y="-312.3" font-family="Helvetica,sans-Serif" font-size="14.00" fill="#000000">value = [0, 4]</text>
</g>
<!-- 25&#45;&gt;29 -->
<g id="edge29" class="edge">
<title>25&#45;&gt;29</title>
<path fill="none" stroke="#000000" d="M806.1022,-400.9465C820.1547,-389.1606 835.8788,-375.9726 849.8535,-364.2519"/>
<polygon fill="#000000" stroke="#000000" points="852.4408,-366.65 857.8536,-357.5422 847.9425,-361.2866 852.4408,-366.65"/>
</g>
<!-- 27 -->
<g id="node28" class="node">
<title>27</title>
<polygon fill="none" stroke="#000000" points="699,-253.5 600,-253.5 600,-200.5 699,-200.5 699,-253.5"/>
<text text-anchor="middle" x="649.5" y="-238.3" font-family="Helvetica,sans-Serif" font-size="14.00" fill="#000000">gini = 0.0</text>
<text text-anchor="middle" x="649.5" y="-223.3" font-family="Helvetica,sans-Serif" font-size="14.00" fill="#000000">samples = 1</text>
<text text-anchor="middle" x="649.5" y="-208.3" font-family="Helvetica,sans-Serif" font-size="14.00" fill="#000000">value = [0, 1]</text>
</g>
<!-- 26&#45;&gt;27 -->
<g id="edge27" class="edge">
<title>26&#45;&gt;27</title>
<path fill="none" stroke="#000000" d="M726.1721,-296.9465C713.3737,-285.2707 699.067,-272.219 686.3099,-260.5809"/>
<polygon fill="#000000" stroke="#000000" points="688.3409,-257.6961 678.5943,-253.5422 683.6231,-262.8675 688.3409,-257.6961"/>
</g>
<!-- 28 -->
<g id="node29" class="node">
<title>28</title>
<polygon fill="none" stroke="#000000" points="816,-253.5 717,-253.5 717,-200.5 816,-200.5 816,-253.5"/>
<text text-anchor="middle" x="766.5" y="-238.3" font-family="Helvetica,sans-Serif" font-size="14.00" fill="#000000">gini = 0.0</text>
<text text-anchor="middle" x="766.5" y="-223.3" font-family="Helvetica,sans-Serif" font-size="14.00" fill="#000000">samples = 1</text>
<text text-anchor="middle" x="766.5" y="-208.3" font-family="Helvetica,sans-Serif" font-size="14.00" fill="#000000">value = [1, 0]</text>
</g>
<!-- 26&#45;&gt;28 -->
<g id="edge28" class="edge">
<title>26&#45;&gt;28</title>
<path fill="none" stroke="#000000" d="M764.4823,-296.9465C764.7905,-286.2621 765.132,-274.4254 765.445,-263.5742"/>
<polygon fill="#000000" stroke="#000000" points="768.9445,-263.639 765.7344,-253.5422 761.9474,-263.4371 768.9445,-263.639"/>
</g>
<!-- 31 -->
<g id="node32" class="node">
<title>31</title>
<polygon fill="none" stroke="#000000" points="1073.5,-573 957.5,-573 957.5,-505 1073.5,-505 1073.5,-573"/>
<text text-anchor="middle" x="1015.5" y="-557.8" font-family="Helvetica,sans-Serif" font-size="14.00" fill="#000000">X[4] &lt;= &#45;46.205</text>
<text text-anchor="middle" x="1015.5" y="-542.8" font-family="Helvetica,sans-Serif" font-size="14.00" fill="#000000">gini = 0.337</text>
<text text-anchor="middle" x="1015.5" y="-527.8" font-family="Helvetica,sans-Serif" font-size="14.00" fill="#000000">samples = 14</text>
<text text-anchor="middle" x="1015.5" y="-512.8" font-family="Helvetica,sans-Serif" font-size="14.00" fill="#000000">value = [3, 11]</text>
</g>
<!-- 30&#45;&gt;31 -->
<g id="edge31" class="edge">
<title>30&#45;&gt;31</title>
<path fill="none" stroke="#000000" d="M1015.5,-608.9465C1015.5,-600.776 1015.5,-591.9318 1015.5,-583.3697"/>
<polygon fill="#000000" stroke="#000000" points="1019.0001,-583.13 1015.5,-573.13 1012.0001,-583.13 1019.0001,-583.13"/>
</g>
<!-- 40 -->
<g id="node41" class="node">
<title>40</title>
<polygon fill="none" stroke="#000000" points="1199,-565.5 1092,-565.5 1092,-512.5 1199,-512.5 1199,-565.5"/>
<text text-anchor="middle" x="1145.5" y="-550.3" font-family="Helvetica,sans-Serif" font-size="14.00" fill="#000000">gini = 0.0</text>
<text text-anchor="middle" x="1145.5" y="-535.3" font-family="Helvetica,sans-Serif" font-size="14.00" fill="#000000">samples = 21</text>
<text text-anchor="middle" x="1145.5" y="-520.3" font-family="Helvetica,sans-Serif" font-size="14.00" fill="#000000">value = [0, 21]</text>
</g>
<!-- 30&#45;&gt;40 -->
<g id="edge40" class="edge">
<title>30&#45;&gt;40</title>
<path fill="none" stroke="#000000" d="M1058.0669,-608.9465C1072.937,-597.0504 1089.5925,-583.726 1104.3454,-571.9237"/>
<polygon fill="#000000" stroke="#000000" points="1106.7,-574.5222 1112.3223,-565.5422 1102.3271,-569.0561 1106.7,-574.5222"/>
</g>
<!-- 32 -->
<g id="node33" class="node">
<title>32</title>
<polygon fill="none" stroke="#000000" points="1069,-469 962,-469 962,-401 1069,-401 1069,-469"/>
<text text-anchor="middle" x="1015.5" y="-453.8" font-family="Helvetica,sans-Serif" font-size="14.00" fill="#000000">X[5] &lt;= &#45;5.302</text>
<text text-anchor="middle" x="1015.5" y="-438.8" font-family="Helvetica,sans-Serif" font-size="14.00" fill="#000000">gini = 0.26</text>
<text text-anchor="middle" x="1015.5" y="-423.8" font-family="Helvetica,sans-Serif" font-size="14.00" fill="#000000">samples = 13</text>
<text text-anchor="middle" x="1015.5" y="-408.8" font-family="Helvetica,sans-Serif" font-size="14.00" fill="#000000">value = [2, 11]</text>
</g>
<!-- 31&#45;&gt;32 -->
<g id="edge32" class="edge">
<title>31&#45;&gt;32</title>
<path fill="none" stroke="#000000" d="M1015.5,-504.9465C1015.5,-496.776 1015.5,-487.9318 1015.5,-479.3697"/>
<polygon fill="#000000" stroke="#000000" points="1019.0001,-479.13 1015.5,-469.13 1012.0001,-479.13 1019.0001,-479.13"/>
</g>
<!-- 39 -->
<g id="node40" class="node">
<title>39</title>
<polygon fill="none" stroke="#000000" points="1186,-461.5 1087,-461.5 1087,-408.5 1186,-408.5 1186,-461.5"/>
<text text-anchor="middle" x="1136.5" y="-446.3" font-family="Helvetica,sans-Serif" font-size="14.00" fill="#000000">gini = 0.0</text>
<text text-anchor="middle" x="1136.5" y="-431.3" font-family="Helvetica,sans-Serif" font-size="14.00" fill="#000000">samples = 1</text>
<text text-anchor="middle" x="1136.5" y="-416.3" font-family="Helvetica,sans-Serif" font-size="14.00" fill="#000000">value = [1, 0]</text>
</g>
<!-- 31&#45;&gt;39 -->
<g id="edge39" class="edge">
<title>31&#45;&gt;39</title>
<path fill="none" stroke="#000000" d="M1055.1199,-504.9465C1068.8324,-493.1606 1084.1761,-479.9726 1097.8127,-468.2519"/>
<polygon fill="#000000" stroke="#000000" points="1100.3169,-470.7147 1105.6192,-461.5422 1095.7541,-465.4061 1100.3169,-470.7147"/>
</g>
<!-- 33 -->
<g id="node34" class="node">
<title>33</title>
<polygon fill="none" stroke="#000000" points="1073.5,-365 957.5,-365 957.5,-297 1073.5,-297 1073.5,-365"/>
<text text-anchor="middle" x="1015.5" y="-349.8" font-family="Helvetica,sans-Serif" font-size="14.00" fill="#000000">X[5] &lt;= &#45;20.818</text>
<text text-anchor="middle" x="1015.5" y="-334.8" font-family="Helvetica,sans-Serif" font-size="14.00" fill="#000000">gini = 0.153</text>
<text text-anchor="middle" x="1015.5" y="-319.8" font-family="Helvetica,sans-Serif" font-size="14.00" fill="#000000">samples = 12</text>
<text text-anchor="middle" x="1015.5" y="-304.8" font-family="Helvetica,sans-Serif" font-size="14.00" fill="#000000">value = [1, 11]</text>
</g>
<!-- 32&#45;&gt;33 -->
<g id="edge33" class="edge">
<title>32&#45;&gt;33</title>
<path fill="none" stroke="#000000" d="M1015.5,-400.9465C1015.5,-392.776 1015.5,-383.9318 1015.5,-375.3697"/>
<polygon fill="#000000" stroke="#000000" points="1019.0001,-375.13 1015.5,-365.13 1012.0001,-375.13 1019.0001,-375.13"/>
</g>
<!-- 38 -->
<g id="node39" class="node">
<title>38</title>
<polygon fill="none" stroke="#000000" points="1191,-357.5 1092,-357.5 1092,-304.5 1191,-304.5 1191,-357.5"/>
<text text-anchor="middle" x="1141.5" y="-342.3" font-family="Helvetica,sans-Serif" font-size="14.00" fill="#000000">gini = 0.0</text>
<text text-anchor="middle" x="1141.5" y="-327.3" font-family="Helvetica,sans-Serif" font-size="14.00" fill="#000000">samples = 1</text>
<text text-anchor="middle" x="1141.5" y="-312.3" font-family="Helvetica,sans-Serif" font-size="14.00" fill="#000000">value = [1, 0]</text>
</g>
<!-- 32&#45;&gt;38 -->
<g id="edge38" class="edge">
<title>32&#45;&gt;38</title>
<path fill="none" stroke="#000000" d="M1056.7571,-400.9465C1071.1697,-389.0504 1087.3127,-375.726 1101.6117,-363.9237"/>
<polygon fill="#000000" stroke="#000000" points="1103.8589,-366.6071 1109.3431,-357.5422 1099.4029,-361.2086 1103.8589,-366.6071"/>
</g>
<!-- 34 -->
<g id="node35" class="node">
<title>34</title>
<polygon fill="none" stroke="#000000" points="1009,-261 898,-261 898,-193 1009,-193 1009,-261"/>
<text text-anchor="middle" x="953.5" y="-245.8" font-family="Helvetica,sans-Serif" font-size="14.00" fill="#000000">X[3] &lt;= 26.595</text>
<text text-anchor="middle" x="953.5" y="-230.8" font-family="Helvetica,sans-Serif" font-size="14.00" fill="#000000">gini = 0.375</text>
<text text-anchor="middle" x="953.5" y="-215.8" font-family="Helvetica,sans-Serif" font-size="14.00" fill="#000000">samples = 4</text>
<text text-anchor="middle" x="953.5" y="-200.8" font-family="Helvetica,sans-Serif" font-size="14.00" fill="#000000">value = [1, 3]</text>
</g>
<!-- 33&#45;&gt;34 -->
<g id="edge34" class="edge">
<title>33&#45;&gt;34</title>
<path fill="none" stroke="#000000" d="M995.1989,-296.9465C990.0604,-288.3271 984.4749,-278.9579 979.1114,-269.9611"/>
<polygon fill="#000000" stroke="#000000" points="981.9737,-267.9272 973.8467,-261.13 975.9611,-271.5117 981.9737,-267.9272"/>
</g>
<!-- 37 -->
<g id="node38" class="node">
<title>37</title>
<polygon fill="none" stroke="#000000" points="1126,-253.5 1027,-253.5 1027,-200.5 1126,-200.5 1126,-253.5"/>
<text text-anchor="middle" x="1076.5" y="-238.3" font-family="Helvetica,sans-Serif" font-size="14.00" fill="#000000">gini = 0.0</text>
<text text-anchor="middle" x="1076.5" y="-223.3" font-family="Helvetica,sans-Serif" font-size="14.00" fill="#000000">samples = 8</text>
<text text-anchor="middle" x="1076.5" y="-208.3" font-family="Helvetica,sans-Serif" font-size="14.00" fill="#000000">value = [0, 8]</text>
</g>
<!-- 33&#45;&gt;37 -->
<g id="edge37" class="edge">
<title>33&#45;&gt;37</title>
<path fill="none" stroke="#000000" d="M1035.4737,-296.9465C1041.999,-285.8215 1049.2569,-273.4473 1055.8322,-262.237"/>
<polygon fill="#000000" stroke="#000000" points="1058.8916,-263.9387 1060.932,-253.5422 1052.8536,-260.3971 1058.8916,-263.9387"/>
</g>
<!-- 35 -->
<g id="node36" class="node">
<title>35</title>
<polygon fill="none" stroke="#000000" points="944,-149.5 845,-149.5 845,-96.5 944,-96.5 944,-149.5"/>
<text text-anchor="middle" x="894.5" y="-134.3" font-family="Helvetica,sans-Serif" font-size="14.00" fill="#000000">gini = 0.0</text>
<text text-anchor="middle" x="894.5" y="-119.3" font-family="Helvetica,sans-Serif" font-size="14.00" fill="#000000">samples = 1</text>
<text text-anchor="middle" x="894.5" y="-104.3" font-family="Helvetica,sans-Serif" font-size="14.00" fill="#000000">value = [1, 0]</text>
</g>
<!-- 34&#45;&gt;35 -->
<g id="edge35" class="edge">
<title>34&#45;&gt;35</title>
<path fill="none" stroke="#000000" d="M934.1812,-192.9465C927.9324,-181.9316 920.9888,-169.6922 914.6793,-158.5703"/>
<polygon fill="#000000" stroke="#000000" points="917.5362,-156.513 909.5576,-149.5422 911.4477,-159.967 917.5362,-156.513"/>
</g>
<!-- 36 -->
<g id="node37" class="node">
<title>36</title>
<polygon fill="none" stroke="#000000" points="1061,-149.5 962,-149.5 962,-96.5 1061,-96.5 1061,-149.5"/>
<text text-anchor="middle" x="1011.5" y="-134.3" font-family="Helvetica,sans-Serif" font-size="14.00" fill="#000000">gini = 0.0</text>
<text text-anchor="middle" x="1011.5" y="-119.3" font-family="Helvetica,sans-Serif" font-size="14.00" fill="#000000">samples = 3</text>
<text text-anchor="middle" x="1011.5" y="-104.3" font-family="Helvetica,sans-Serif" font-size="14.00" fill="#000000">value = [0, 3]</text>
</g>
<!-- 34&#45;&gt;36 -->
<g id="edge36" class="edge">
<title>34&#45;&gt;36</title>
<path fill="none" stroke="#000000" d="M972.4914,-192.9465C978.6343,-181.9316 985.4601,-169.6922 991.6627,-158.5703"/>
<polygon fill="#000000" stroke="#000000" points="994.8837,-159.9806 996.6976,-149.5422 988.7701,-156.5711 994.8837,-159.9806"/>
</g>
</g>
</svg>
